<svg viewBox="0 0 300 300" xmlns="http://www.w3.org/2000/svg">
  <g fill="none" stroke-linecap="round" stroke-linejoin="round">
    <path d="M92 96C92 75.012 109.012 58 130 58H166C186.988 58 204 75.012 204 96V132C204 152.988 186.988 170 166 170H130C109.012 170 92 152.988 92 132V96Z" fill="#FFFFFF" stroke="#0F172A" stroke-width="8"/>
    <path d="M87 132C114 88 158 68 213 74" stroke="#22D3EE" stroke-width="8"/>
    <path d="M86 142C119 166 163 167 210 134" stroke="#0F172A" stroke-width="8"/>
    <rect x="121" y="116" width="14" height="28" rx="7" fill="#22D3EE" stroke="#0F172A" stroke-width="5"/>
    <rect x="145" y="99" width="14" height="45" rx="7" fill="#22D3EE" stroke="#0F172A" stroke-width="5"/>
    <rect x="169" y="84" width="14" height="60" rx="7" fill="#22D3EE" stroke="#0F172A" stroke-width="5"/>
    <circle cx="211" cy="74" r="8" fill="#22D3EE" stroke="#0F172A" stroke-width="5"/>
    <circle cx="88" cy="142" r="6" fill="#FFFFFF" stroke="#0F172A" stroke-width="5"/>
  </g>
  <text x="150" y="225" text-anchor="middle" font-family="Inter, system-ui, sans-serif" font-size="48" font-weight="800" letter-spacing="-2" fill="#0F172A" stroke="#FFFFFF" stroke-width="3" paint-order="stroke">bar123</text>
</svg>
