<?xml version="1.0" standalone="no"?><!DOCTYPE svg PUBLIC "-//W3C//DTD SVG 1.1//EN" "http://www.w3.org/Graphics/SVG/1.1/DTD/svg11.dtd"><svg t="1673321142405" class="icon" viewBox="0 0 1024 1024" version="1.1" xmlns="http://www.w3.org/2000/svg" p-id="10410" xmlns:xlink="http://www.w3.org/1999/xlink" width="32" height="32"><path d="M580.266667 682.666667A170.666667 170.666667 0 0 0 887.466667 580.266667c0-38.5024-13.243733-73.659733-34.747734-102.1952L853.333333 477.866667l-341.333333-409.6-341.333333 409.6 0.6144 0.2048A169.1648 169.1648 0 0 0 136.533333 580.266667 170.666667 170.666667 0 0 0 443.733333 682.666667l34.133334-45.4656V785.066667C477.866667 887.466667 307.2 887.466667 307.2 887.466667a34.133333 34.133333 0 1 0 0 68.266666h409.6a34.133333 34.133333 0 0 0 0-68.266666S546.133333 887.466667 546.133333 785.066667V637.201067l34.133334 45.4656z" fill="#ffffff" p-id="10411"></path></svg>