<?xml version="1.0" standalone="no"?><!DOCTYPE svg PUBLIC "-//W3C//DTD SVG 1.1//EN" "http://www.w3.org/Graphics/SVG/1.1/DTD/svg11.dtd"><svg t="1673320742778" class="icon" viewBox="0 0 1024 1024" version="1.1" xmlns="http://www.w3.org/2000/svg" p-id="4118" xmlns:xlink="http://www.w3.org/1999/xlink" width="32" height="32"><path d="M732.5 154.9C674 96.4 596.3 64.2 513.6 64.2c-82.7 0-160.4 32.2-218.9 90.7S204 291.1 204 373.8c0 117.1 52.8 194.1 99.3 261.9 12.6 18.4 24.6 35.8 35.3 53.6 10.2 16.9 15.5 36.4 15.5 56.4 0 5.2 4.2 9.4 9.4 9.4s9.4-4.2 9.4-9.4c0-23.4-6.3-46.3-18.2-66.1-11-18.3-23.1-35.9-35.9-54.5-47.2-68.9-96-140-96-251.3C222.8 213.4 353.3 83 513.6 83 674 83 804.5 213.4 804.5 373.8c0 111.3-48.8 182.5-96 251.3-12.8 18.7-24.9 36.3-35.9 54.5-11.9 19.8-18.2 42.6-18.2 66.1 0 5.2 4.2 9.4 9.4 9.4s9.4-4.2 9.4-9.4c0-20 5.4-39.5 15.5-56.4 10.7-17.8 22.6-35.2 35.3-53.6 46.5-67.9 99.3-144.8 99.3-261.9-0.1-82.7-32.3-160.4-90.8-218.9zM354.2 806.6c0.6 4.7 4.7 8.1 9.3 8.1 0.4 0 0.8 0 1.3-0.1l206.4-28.1c5.1-0.7 8.7-5.4 8-10.6-0.7-5.1-5.4-8.7-10.6-8L362.3 796c-5.2 0.7-8.8 5.5-8.1 10.6zM662.6 801.5L362.4 839c-5.1 0.6-8.8 5.3-8.1 10.5 0.6 4.7 4.6 8.2 9.3 8.2 0.4 0 0.8 0 1.2-0.1L665 820.1c5.1-0.6 8.8-5.3 8.1-10.5-0.7-5.1-5.4-8.7-10.5-8.1zM662.6 839.8l-300.2 37.5c-5.1 0.6-8.8 5.3-8.1 10.5 0.6 4.7 4.6 8.2 9.3 8.2 0.4 0 0.8 0 1.2-0.1L665 858.4c5.1-0.6 8.8-5.3 8.1-10.5-0.7-5-5.4-8.7-10.5-8.1zM642.4 881.3l-250.7 31.3c-5.1 0.6-8.8 5.3-8.1 10.5 0.6 4.7 4.6 8.2 9.3 8.2 0.4 0 0.8 0 1.2-0.1l250.7-31.3c5.1-0.6 8.8-5.3 8.1-10.5-0.7-5.1-5.4-8.8-10.5-8.1zM569.2 929.7l-89.7 11.2c-5.1 0.6-8.8 5.3-8.1 10.5 0.6 4.7 4.6 8.2 9.3 8.2 0.4 0 0.8 0 1.2-0.1l89.7-11.2c5.1-0.6 8.8-5.3 8.1-10.5-0.7-5.1-5.4-8.8-10.5-8.1z" fill="#ffffff" p-id="4119"></path><path d="M564.1 235.4c5.8 0.8 16.9 3.5 26.6 12.8 4.1 4 11.3 12.5 13.2 25.5 0.3 2.3 2.3 4 4.6 4 0.2 0 0.5 0 0.7-0.1 2.6-0.4 4.3-2.8 4-5.3-2.3-15.7-11-26-16-30.8-11.5-11.1-24.9-14.4-31.8-15.3-2.6-0.4-4.9 1.4-5.3 4-0.4 2.5 1.4 4.8 4 5.2zM560 336.6c1.2 19.6-9 33.7-13.5 38.9-1.7 2-1.5 4.9 0.5 6.6 0.9 0.8 2 1.1 3.1 1.1 1.3 0 2.6-0.6 3.6-1.6 4.5-5.3 14.2-18.5 15.7-37.2 0.2 0 0.4-0.1 0.6-0.2 3.1-1.1 13.5-5.5 17.5-16.9 2.6-7.3 1.1-13.9 0-17.1-0.8-2.5-3.5-3.8-5.9-3-2.5 0.8-3.8 3.5-3 5.9 0.7 2.1 1.7 6.4 0 11-1.9 5.5-6.4 8.6-9.3 10.1-1.6-17.7-10.4-30.3-15.6-36.3-1.7-2-4.7-2.2-6.6-0.5-2 1.7-2.2 4.7-0.5 6.6 4.6 5.5 12.5 16.7 13.4 32.6zM599.5 398.8c-2.4-1.1-5.1 0-6.2 2.4-1.1 2.4 0 5.1 2.4 6.2 7.2 3.2 14.8 4.7 22.4 4.7 16.4 0 32.3-7.3 41.7-20.3 7.3-10.2 10-23.4 7.5-36.3-2.7-14-11.1-26-23.4-33.8-2.2-1.4-5.1-0.7-6.5 1.5-1.4 2.2-0.7 5.1 1.5 6.5 10.2 6.4 17 16.2 19.2 27.6 1.9 9.7 0.2 19.3-4.7 27.2-10.3 0.3-19.4-4.3-22.2-11.3-1.6-4-0.8-8.1 0.1-10.8 0.8-2.5-0.5-5.1-2.9-5.9-2.5-0.8-5.1 0.5-5.9 2.9-1.4 4.2-2.6 10.7 0.1 17.3 3.5 8.7 12.3 14.8 23.1 16.6-12.3 10-30.5 12.5-46.2 5.5zM539.2 464.1c0.4 0 0.8 0 1.1-0.1 2.5-0.6 4-3.2 3.4-5.7-0.7-2.9-3.9-18.3 6.4-31.1 6.4-8 14.9-11.2 19.5-12.5 2.5-0.7 4-3.3 3.3-5.8-0.7-2.5-3.3-4-5.8-3.3-5.6 1.5-16.3 5.6-24.3 15.7-13.1 16.3-9.1 35.6-8.2 39.3a4.8 4.8 0 0 0 4.6 3.5zM558.7 496.4c9.1-8 19.4-10.5 24.9-11.3 2.6-0.4 4.4-2.7 4-5.3-0.4-2.6-2.7-4.4-5.3-4-7 1-20.4 4.2-31.8 15.4-14.6 14.3-16.1 31.7-16 38.6 0 2.6 2.1 4.7 4.7 4.7s4.7-2.1 4.7-4.7c0-3.6 0.5-14.4 7.4-24.8 4.9 12.9 17.3 22.2 31.6 22.5h0.7c14.9 0 28.4-9.9 33.1-24.4 0.8-2.5-0.6-5.1-3-5.9-2.5-0.8-5.1 0.6-5.9 3-3.5 10.7-13.6 18.1-24.6 17.9-12.4-0.3-22.7-9.6-24.5-21.7z" fill="#ffffff" p-id="4120"></path><path d="M363.1 528.1c7.9 8.7 17.2 16 27.5 21.7 9.1 29.1 36.5 49.1 68.3 49.1 22.7 0 42-7.7 54.7-21.6 12.7 13.9 32 21.6 54.7 21.6 31.8 0 59.3-20 68.3-49.1 10.2-5.7 19.5-13 27.5-21.7 17.2-19 26.7-43.4 26.7-68.7 0-8.8-1.1-17.5-3.4-25.9 20.1-19.5 32.6-46.4 32.6-76.1 0-39.5-22.8-76.2-58.5-94.9-1.9-42.4-38-76.3-82.3-76.3-25.4 0-49.9 12.9-65.7 33.9-15.8-20.9-40.2-33.9-65.7-33.9-44.2 0-80.4 33.9-82.3 76.3-35.7 18.7-58.5 55.4-58.5 94.9 0 29.7 12.4 56.6 32.6 76.1-2.2 8.4-3.4 17.1-3.4 25.9 0.2 25.3 9.7 49.7 26.9 68.7z m216.2-323.2c35.1 0 63.6 27.4 63.6 61 0 10.9-3.1 21.7-8.8 31-2.7 4.4-1.4 10.2 3 12.9 4.4 2.7 10.2 1.4 12.9-3.1 4.6-7.4 7.8-15.4 9.7-23.7 25.6 16.4 41.5 44.3 41.5 74.3 0 49.1-41.6 89.1-92.8 89.1-5.2 0-9.4 4.2-9.4 9.4s4.2 9.4 9.4 9.4c23.2 0 44.7-6.9 62.6-18.6 0.7 4.2 1 8.5 1 12.8 0 42.3-32.8 78.7-76.2 84.7-5.1 0.7-8.7 5.5-8 10.6 0.7 4.7 4.7 8.1 9.3 8.1 0.4 0 0.9 0 1.3-0.1 4-0.6 8-1.4 11.8-2.3-9.7 12.2-25 19.8-41.9 19.8-20.4 0-36.7-7.7-45.3-21.3V240c11.5-21.1 33.9-35.1 56.3-35.1zM326 357.4c0-30 16-57.9 41.5-74.3 1.9 8.3 5.1 16.4 9.7 23.7 2.7 4.4 8.5 5.8 12.9 3.1 4.4-2.7 5.8-8.5 3.1-12.9-5.8-9.4-8.8-20.1-8.8-31 0-33.6 28.5-61 63.6-61 22.5 0 44.8 14 56.3 35.1v318.8c-8.6 13.6-25 21.3-45.3 21.3-17 0-32.2-7.6-41.9-19.8 3.9 1 7.8 1.8 11.8 2.3 0.4 0.1 0.9 0.1 1.3 0.1 4.6 0 8.6-3.4 9.3-8.1 0.7-5.1-2.9-9.9-8-10.6-43.5-6-76.2-42.5-76.2-84.7 0-4.3 0.3-8.6 1-12.8 17.9 11.8 39.4 18.6 62.6 18.6 5.2 0 9.4-4.2 9.4-9.4s-4.2-9.4-9.4-9.4c-51.3 0.1-92.9-39.9-92.9-89z" fill="#ffffff" p-id="4121"></path><path d="M418.1 277.6c0.2 0 0.5 0.1 0.7 0.1 2.3 0 4.3-1.7 4.6-4 1.9-12.9 9.1-21.5 13.2-25.5 9.6-9.3 20.8-12 26.6-12.8 2.6-0.4 4.4-2.7 4-5.3-0.4-2.6-2.7-4.4-5.3-4-6.9 1-20.3 4.2-31.8 15.3-5 4.8-13.7 15.2-16 30.8-0.3 2.6 1.4 5 4 5.4zM448.8 324.2c-1.6-4.7-0.7-8.9 0-11 0.8-2.5-0.5-5.1-3-5.9-2.5-0.8-5.1 0.5-5.9 3-1.1 3.3-2.5 9.8 0 17.1 4 11.4 14.4 15.9 17.5 16.9 0.2 0.1 0.4 0.1 0.6 0.2 1.4 18.7 11.1 31.9 15.7 37.2 0.9 1.1 2.2 1.6 3.6 1.6 1.1 0 2.2-0.4 3.1-1.1 2-1.7 2.2-4.7 0.5-6.6-4.4-5.1-14.6-19.2-13.5-38.9 1-15.8 8.8-27.1 13.5-32.4 1.7-2 1.5-4.9-0.5-6.6-2-1.7-4.9-1.5-6.6 0.5-5.2 6-14 18.6-15.6 36.3-3.1-1.7-7.5-4.8-9.4-10.3zM409.3 412.1c7.5 0 15.2-1.5 22.4-4.7 2.4-1.1 3.4-3.8 2.4-6.2-1.1-2.4-3.8-3.4-6.2-2.4-15.7 7-34 4.4-46.1-5.5 10.8-1.8 19.7-7.9 23.1-16.6 2.7-6.6 1.5-13.1 0.1-17.3-0.8-2.5-3.5-3.8-5.9-2.9-2.5 0.8-3.8 3.5-2.9 5.9 0.9 2.7 1.7 6.8 0.1 10.8-2.8 7-12 11.6-22.2 11.3-5-7.9-6.6-17.5-4.7-27.2 2.2-11.4 9.1-21.2 19.2-27.6 2.2-1.4 2.8-4.3 1.5-6.5-1.4-2.2-4.3-2.8-6.5-1.5-12.4 7.8-20.7 19.8-23.4 33.8-2.5 12.8 0.2 26.1 7.5 36.3 9.2 13.1 25.1 20.3 41.6 20.3zM460.2 405.6c-2.5-0.7-5.1 0.8-5.8 3.3-0.7 2.5 0.8 5.1 3.3 5.8 4.5 1.2 13.1 4.5 19.5 12.5 10.3 12.9 7.1 28.2 6.4 31.1-0.6 2.5 0.9 5.1 3.4 5.7 0.4 0.1 0.8 0.1 1.1 0.1 2.1 0 4-1.4 4.5-3.5 0.9-3.7 4.9-22.9-8.2-39.3-8-10.1-18.6-14.1-24.2-15.7zM445 475.9c-2.6-0.4-4.9 1.4-5.3 4-0.4 2.6 1.4 4.9 4 5.3 5.5 0.8 15.8 3.2 24.9 11.3-1.8 12-12.1 21.4-24.4 21.6-11 0.3-21.2-7.1-24.6-17.9-0.8-2.5-3.4-3.8-5.9-3-2.5 0.8-3.8 3.4-3 5.9 4.6 14.4 18.2 24.4 33.1 24.4h0.7c14.3-0.3 26.7-9.6 31.6-22.5 6.7 10 7.4 20.3 7.4 24.8 0 2.6 2.1 4.7 4.7 4.7s4.7-2.1 4.7-4.7c0.1-6.8-1.4-24.3-16-38.6-11.5-11.1-24.9-14.4-31.9-15.3z" fill="#ffffff" p-id="4122"></path></svg>