<?xml version="1.0" standalone="no"?><!DOCTYPE svg PUBLIC "-//W3C//DTD SVG 1.1//EN" "http://www.w3.org/Graphics/SVG/1.1/DTD/svg11.dtd"><svg t="1673321760552" class="icon" viewBox="0 0 1317 1024" version="1.1" xmlns="http://www.w3.org/2000/svg" p-id="13770" xmlns:xlink="http://www.w3.org/1999/xlink" width="41.15625" height="32"><path d="M425.691429 517.705143q0 21.138286-14.555429 35.108571t-35.693714 13.970286q-16.603429 0-26.550857-9.142857t-10.020571-25.161143q0-21.138286 14.262857-35.693714t35.401143-14.555429q16.018286 0 26.550857 9.435429t10.605714 25.965714zM874.276571 432.566857q0 23.990857-12.580571 32.548571t-37.741714 8.557714l-18.285714 0.585143 9.728-61.147429q1.170286-6.290286 7.460571-6.290286l10.313143 0q12.580571 0 19.968 1.170286t14.262857 7.168 6.875429 17.408zM1074.834286 517.705143q0 20.553143-14.555429 34.889143t-35.108571 14.262857q-16.603429 0-26.843429-9.142857t-10.313143-25.161143q0-21.138286 14.262857-35.693714t35.401143-14.555429q16.018286 0 26.550857 9.435429t10.605714 25.965714zM293.156571 419.986286q0-33.718857-22.016-48.859429t-57.417143-15.140571l-91.428571 0q-10.825143 0-11.995429 10.825143l-37.156571 233.179429q-0.585143 3.437714 1.682286 6.290286t5.705143 2.852571l43.446857 0q11.410286 0 12.580571-10.825143l10.313143-62.829714q0.585143-4.534857 4.022857-7.460571t8.557714-3.730286 9.728-0.877714 10.825143 0.585143 7.972571 0.585143q49.152 0 77.165714-27.721143t28.013714-76.873143zM469.723429 598.308571l23.405714-149.138286q0.585143-3.437714-1.682286-6.290286t-5.705143-2.852571l-43.446857 0q-7.972571 0-9.728 18.870857-15.433143-22.820571-54.272-22.820571-41.179429 0-69.997714 30.866286t-28.891429 72.557714q0 33.718857 19.748571 53.686857t52.882286 19.968q16.018286 0 33.133714-6.875429t27.428571-18.285714q-2.267429 6.875429-2.267429 11.995429 0 9.142857 7.460571 9.142857l39.424 0q10.825143 0 12.580571-10.825143zM725.138286 448q0-2.852571-2.267429-5.412571t-5.12-2.56l-44.032 0q-6.290286 0-10.313143 5.705143l-60.562286 89.161143-25.161143-85.723429q-2.852571-9.142857-12.580571-9.142857l-42.861714 0q-2.852571 0-5.12 2.56t-2.267429 5.412571q0 1.170286 11.117714 33.718857t23.990857 70.290286 13.458286 40.009143q-46.884571 64-46.884571 68.534857 0 7.460571 7.460571 7.460571l44.032 0q6.290286 0 10.313143-5.705143l145.700571-210.285714q1.170286-1.170286 1.170286-4.022857zM942.299429 419.986286q0-33.718857-22.016-48.859429t-57.417143-15.140571l-90.843429 0q-11.410286 0-12.580571 10.825143l-37.156571 233.179429q-0.585143 3.437714 1.682286 6.290286t5.705143 2.852571l46.884571 0q6.875429 0 9.142857-7.460571l10.313143-66.267429q0.585143-4.534857 4.022857-7.460571t8.557714-3.730286 9.728-0.877714 10.825143 0.585143 7.972571 0.585143q49.152 0 77.165714-27.721143t28.013714-76.873143zM1118.866286 598.308571l23.405714-149.138286q0.585143-3.437714-1.682286-6.290286t-5.705143-2.852571l-43.446857 0q-7.972571 0-9.728 18.870857-14.848-22.820571-54.272-22.820571-41.179429 0-69.997714 30.866286t-28.891429 72.557714q0 33.718857 19.748571 53.686857t52.882286 19.968q16.603429 0 33.718857-6.875429t26.843429-18.285714q0 0.585143-1.170286 5.12t-1.170286 6.875429q0 9.142857 7.460571 9.142857l39.424 0q10.825143 0 12.580571-10.825143zM1243.428571 364.544l0-0.585143q0-7.972571-7.460571-7.972571l-42.276571 0q-6.290286 0-7.460571 6.290286l-37.156571 237.714286-0.585143 1.170286q0 2.852571 2.267429 5.412571t5.705143 2.56l37.741714 0q10.825143 0 11.995429-10.825143zM224.036571 441.124571q-2.852571 19.968-14.848 26.258286t-34.304 6.290286l-18.870857 0.585143 9.728-61.147429q1.170286-6.290286 7.460571-6.290286l10.825143 0q22.820571 0 33.133714 6.582857t6.875429 27.721143zM1316.571429 146.285714l0 731.428571q0 29.696-21.723429 51.419429t-51.419429 21.723429l-1170.285714 0q-29.696 0-51.419429-21.723429t-21.723429-51.419429l0-731.428571q0-29.696 21.723429-51.419429t51.419429-21.723429l1170.285714 0q29.696 0 51.419429 21.723429t21.723429 51.419429z" fill="#ffffff" p-id="13771"></path></svg>