<?xml version="1.0" standalone="no"?><!DOCTYPE svg PUBLIC "-//W3C//DTD SVG 1.1//EN" "http://www.w3.org/Graphics/SVG/1.1/DTD/svg11.dtd"><svg t="1673321959587" class="icon" viewBox="0 0 1024 1024" version="1.1" xmlns="http://www.w3.org/2000/svg" p-id="16176" xmlns:xlink="http://www.w3.org/1999/xlink" width="32" height="32"><path d="M853.333333 85.333333H341.333333c-47.146667 0-85.333333 38.186667-85.333333 85.333334v512c0 47.146667 38.186667 85.333333 85.333333 85.333333h512c47.146667 0 85.333333-38.186667 85.333334-85.333333V170.666667c0-47.146667-38.186667-85.333333-85.333334-85.333334zM490.666667 405.333333c0 35.413333-28.586667 64-64 64h-42.666667v85.333334h-64V298.666667h106.666667c35.413333 0 64 28.586667 64 64v42.666666z m213.333333 85.333334c0 35.413333-28.586667 64-64 64h-106.666667V298.666667h106.666667c35.413333 0 64 28.586667 64 64v128z m170.666667-128h-64v42.666666h64v64h-64v85.333334h-64V298.666667h128v64z m-490.666667 42.666666h42.666667v-42.666666h-42.666667v42.666666zM170.666667 256H85.333333v597.333333c0 47.146667 38.186667 85.333333 85.333334 85.333334h597.333333v-85.333334H170.666667V256z m426.666666 234.666667h42.666667v-128h-42.666667v128z" p-id="16177" fill="#ffffff"></path></svg>