<?xml version="1.0" standalone="no"?><!DOCTYPE svg PUBLIC "-//W3C//DTD SVG 1.1//EN" "http://www.w3.org/Graphics/SVG/1.1/DTD/svg11.dtd"><svg t="1673321719958" class="icon" viewBox="0 0 1024 1024" version="1.1" xmlns="http://www.w3.org/2000/svg" p-id="12246" xmlns:xlink="http://www.w3.org/1999/xlink" width="32" height="32"><path d="M541.8 768.3c0-80.6 42.1-151.3 105.6-191.3-21.4-15.3-35.1-31.1-34.8-49.6 0.3-5.6 1.6-50.9 13.3-72.1 10.9-19.9 63.9-106.2 63.9-181.6 0-115.7-73.1-209.4-178.9-209.4s-179 93.7-179 209.4c0 75.4 49.3 156.1 63.9 181.6 13.8 24 13.7 67.9 13.3 72.1-1.4 80.2-280.2 98-280.9 289.4h-0.9v113.5c0 15.4 11.5 27.9 25.6 27.9h492.2c-62.2-40.3-103.3-110.3-103.3-189.9z" fill="#ffffff" p-id="12247"></path><path d="M943.1 730.3h-39.9c-3-10.8-7.3-21.1-12.7-30.7l28.2-28.2c6-6 6-15.8 0-21.7l-32-32c-6-6-15.8-6-21.7 0l-28.2 28.2c-9.6-5.4-19.9-9.7-30.7-12.7v-39.9c0-8.5-6.9-15.4-15.4-15.4h-45.3c-8.5 0-15.4 6.9-15.4 15.4v39.9c-10.8 3-21.1 7.3-30.7 12.7L671 617.6c-6-6-15.8-6-21.7 0l-32 32c-6 6-6 15.8 0 21.7l28.2 28.2c-5.4 9.6-9.7 19.9-12.7 30.7h-39.9c-8.5 0-15.4 6.9-15.4 15.4V791c0 8.5 6.9 15.4 15.4 15.4h39.9c3 10.8 7.3 21.1 12.7 30.7l-28.2 28.2c-6 6-6 15.8 0 21.7l32 32c6 6 15.8 6 21.7 0l28.2-28.2c9.6 5.4 19.9 9.7 30.7 12.7v39.9c0 8.5 6.9 15.4 15.4 15.4h45.3c8.5 0 15.4-6.9 15.4-15.4v-39.9c10.8-3 21.1-7.3 30.7-12.7l28.2 28.2c6 6 15.8 6 21.7 0l32-32c6-6 6-15.8 0-21.7L890.4 837c5.4-9.6 9.7-19.9 12.7-30.7H943c8.5 0 15.4-6.9 15.4-15.4v-45.3c0-8.4-6.9-15.3-15.3-15.3zM767.9 842.4c-40.9 0-74.1-33.2-74.1-74.1 0-40.9 33.2-74.1 74.1-74.1 40.9 0 74.1 33.2 74.1 74.1 0 40.9-33.2 74.1-74.1 74.1z" fill="#ffffff" p-id="12248"></path></svg>