<?xml version="1.0" standalone="no"?><!DOCTYPE svg PUBLIC "-//W3C//DTD SVG 1.1//EN" "http://www.w3.org/Graphics/SVG/1.1/DTD/svg11.dtd"><svg t="1673321659118" class="icon" viewBox="0 0 1024 1024" version="1.1" xmlns="http://www.w3.org/2000/svg" p-id="11260" xmlns:xlink="http://www.w3.org/1999/xlink" width="32" height="32"><path d="M845.38 795.73c-7.19 0-14.3-2.08-20.43-6.09l-315.3-206.03c-16.59-10.83-21.81-32.74-11.9-49.91l59.55-103.16c9.89-17.15 31.51-23.61 49.18-14.64l336.07 170.06a37.273 37.273 0 0 1 18.93 22.66 37.295 37.295 0 0 1-3.45 29.31L877.7 777.05a37.392 37.392 0 0 1-23.66 17.65c-2.87 0.7-5.77 1.03-8.66 1.03zM580.07 540.44l252.7 165.12 40.88-70.8-269.35-136.3-24.23 41.98z" p-id="11261" fill="#ffffff"></path><path d="M399.22 777.97c-12.11 0-24.16-3.39-34.53-9.9L106.82 606a64.505 64.505 0 0 1-21.6-87.14L328.59 97.33c17.47-30.24 55.39-41.16 86.25-24.86l269.3 142.28c15.47 8.18 27.12 22.49 31.96 39.3s2.61 35.13-6.14 50.28l-254.8 441.3c-8.74 15.15-23.49 26.25-40.46 30.46a64.48 64.48 0 0 1-15.48 1.88zM154.68 547.88l240.98 151.47 244.46-423.41-251.67-132.96-233.77 404.9z m522.94-262.22h0.18-0.18z" p-id="11262" fill="#ffffff"></path><path d="M376.91 592.83c-6.33 0-12.74-1.6-18.62-4.99-17.86-10.3-23.98-33.14-13.68-51.01l9.42-16.33c10.31-17.86 33.11-24.01 51-13.67 17.86 10.3 23.98 33.14 13.68 51.01l-9.42 16.33c-6.92 11.97-19.47 18.66-32.38 18.66zM451.2 464.16c-6.33 0-12.75-1.6-18.63-4.99-17.86-10.32-23.97-33.16-13.66-51.01l69.23-119.91c10.3-17.85 33.13-23.97 51-13.67 17.86 10.32 23.97 33.16 13.66 51.01L483.57 445.5c-6.91 11.97-19.47 18.66-32.37 18.66zM698.58 862.44H104.37c-20.62 0-37.33-16.72-37.33-37.33 0-20.62 16.72-37.33 37.33-37.33h594.21c20.62 0 37.33 16.72 37.33 37.33 0 20.62-16.72 37.33-37.33 37.33z" p-id="11263" fill="#ffffff"></path></svg>