<?xml version="1.0" standalone="no"?><!DOCTYPE svg PUBLIC "-//W3C//DTD SVG 1.1//EN" "http://www.w3.org/Graphics/SVG/1.1/DTD/svg11.dtd"><svg t="1673321784025" class="icon" viewBox="0 0 1024 1024" version="1.1" xmlns="http://www.w3.org/2000/svg" p-id="14824" xmlns:xlink="http://www.w3.org/1999/xlink" width="32" height="32"><path d="M428.8 267.072m-170.88 0a170.88 170.88 0 1 0 341.76 0 170.88 170.88 0 1 0-341.76 0Z" fill="#ffffff" p-id="14825"></path><path d="M729.088 646.976c55.424 0 100.48 45.12 100.48 100.48 0 55.424-45.12 100.48-100.48 100.48-55.424 0-100.48-45.12-100.48-100.48a100.544 100.544 0 0 1 100.48-100.48m0-72.128a172.608 172.608 0 1 0 0 345.216 172.608 172.608 0 0 0 0-345.216z" fill="#ffffff" p-id="14826"></path><path d="M945.472 927.808a36.224 36.224 0 0 1-20.352-6.272l-87.744-60.096a36.096 36.096 0 0 1 40.704-59.52l87.744 60.096a36.096 36.096 0 0 1-20.352 65.792zM503.04 745.984c0-91.648 50.56-170.688 124.8-213.184a385.28 385.28 0 0 0-193.984-53.056c-214.784 0-388.736 170.624-391.424 381.952h490.816a242.56 242.56 0 0 1-30.208-115.712z" fill="#ffffff" p-id="14827"></path></svg>