<?xml version="1.0" standalone="no"?><!DOCTYPE svg PUBLIC "-//W3C//DTD SVG 1.1//EN" "http://www.w3.org/Graphics/SVG/1.1/DTD/svg11.dtd"><svg t="1673318175049" class="icon" viewBox="0 0 1024 1024" version="1.1" xmlns="http://www.w3.org/2000/svg" p-id="2646" width="32" height="32" xmlns:xlink="http://www.w3.org/1999/xlink"><path d="M511.466857 64.919569C265.021979 64.36903 62.950727 264.079514 62.697971 513.350764 62.448284 760.104681 261.635859 961.928293 510.866177 962.514647c247.14482 0.635473 448.117041-200.225207 448.808796-448.562179C960.364681 266.63471 759.825318 65.473177 511.466857 64.919569zM713.565738 867.540575c-43.234687 26.628474-90.032526 44.122917-140.230812 51.982932-82.643232 12.94073-161.489998 0.760317-236.478899-36.44812-23.433712-11.627828-41.927925-28.969798-58.193377-49.005111-7.102768-8.749268-13.573133-17.942651-19.050891-27.834952-3.756557-6.782473-5.935176-13.831007-6.271844-21.650089-0.520863-12.090363-0.36839-24.053835 3.51608-35.659151 1.50426-4.493338 3.524267-8.834202 7.063883-12.107759 17.879206-16.530488 30.685883-36.950564 43.710524-57.159838 6.66684-10.344602 13.459546-20.674878 18.889209-31.749098 7.910157-16.131399 3.997034-29.004591-11.252275-38.640042-11.610432-7.336082-24.521486-11.587919-37.640272-14.848173-13.121855-3.260254-24.020066-9.69685-33.891901-18.690688-11.918447-10.859325-23.779589-21.86396-37.751812-30.178323-10.93198-6.505158-22.517853-10.724249-35.501562-9.740852-9.967002 0.7552-15.226796 5.146207-17.70729 14.823614-0.86674 3.38305-1.488911 6.830569-2.183735 10.255575-1.144056 5.634324-3.931542 10.035564-8.915044 13.170974-8.172123 5.142114-17.084097 1.113357-17.962094-8.630564-0.88823-9.852392-1.427512-19.74674-1.235131-31.141254 0.206708-61.252039 14.561647-120.57003 43.073005-176.464037 0.867764-1.700735 2.046612-2.928702 3.579525-4.000104 3.118014-2.178619 6.525624-4.118807 9.135054-6.814196 4.983501-5.146207 10.768251-6.472412 17.693987-6.02625 7.880481 0.50756 12.434194 7.440459 9.159614 14.874779-1.267876 2.87856-3.603061 4.886287-5.652743 7.107885-5.90857 6.40692-9.0624 14.007015-9.745968 22.599717-0.737804 9.279341 4.236488 15.352663 13.403265 15.229866 16.340153-0.220011 32.515554-2.194992 47.734164-8.658194 12.286838-5.217838 19.929912-14.184047 20.959358-27.987425 0.532119-7.136537 1.064238-14.274098 1.744737-21.396309 0.991584-10.380418 12.537548-17.668405 22.446221-14.118556 5.118578 1.833765 7.506974 5.884011 8.103562 11.139711 0.524956 4.622274-0.703011 9.078773-1.230014 13.602809-1.223874 10.519588-0.38681 20.633946 5.629207 29.811979 2.730181 4.164856 6.480598 6.927783 11.228739 8.02886 6.229888 1.443885 10.489912 5.152347 13.729699 10.447956 2.580778 4.220115 5.246491 8.230452 11.394515 7.240915 6.383384-1.028423 10.453073-4.368494 12.56006-10.44591 1.914606-5.52176 2.744507-11.253298 3.377934-16.987906 1.25662-11.379165 5.034666-21.439288 13.156648-29.858028 9.141194-9.475815 13.95585-20.844747 13.696953-34.248012-0.069585-3.612271 0.487094-7.305383 1.251503-10.854209 5.263887-24.417109 26.863834-40.884153 51.752688-39.950897 10.364045 0.388856 20.247136 2.349511 29.476335 7.081279 7.225565 3.704368 13.051247 8.948813 16.423041 16.515139 4.564969 10.246365 11.355629 19.057031 17.886369 28.04166 2.774183 3.815909 5.625114 7.587815 7.605212 11.911284 2.186805 4.773723 1.636267 7.259334-2.718925 10.075473-8.04728 5.204535-16.22759 10.202363-24.301476 15.364943-2.301416 1.471514-4.805446 2.880607-6.573719 4.886287-10.04375 11.385305-22.5199 20.007683-33.725102 30.065759-9.055237 8.127098-16.864086 17.199731-21.099551 28.803-4.716418 12.922311-2.000564 24.673959 8.524141 33.440623 12.846586 10.700713 25.78527 21.412682 41.399899 28.089755 7.618515 3.258207 15.568581 5.454222 23.862477 5.418406 17.84339-0.076748 33.833573 5.489014 48.411593 15.379269 11.207249 7.604188 22.468734 15.175631 33.205263 23.414269 15.494902 11.888771 25.744337 26.806529 25.973558 47.40773 0.11154 10.070356 2.64627 19.834744 7.142677 29.014824 5.599532 11.4334 7.223518 23.835871 7.953136 36.3243 0.683569 11.700483 0.806365 23.433712 1.176802 35.152615 0.533143 16.861016 4.613064 33.130561 8.621355 49.363268 2.434445 9.857509 3.63069 19.694551 3.281743 29.814026-0.246617 7.145747-0.713244 14.322194 0.092098 21.455661 1.780553 15.777335 9.230222 17.899672 21.818935 15.737426 10.640338-1.827625 16.748453-9.889231 22.404266-18.137079 9.143241-13.33368 15.922644-28.02631 23.942295-42.007743 6.319939-11.017938 13.481036-21.425985 23.220864-29.727045 19.080567-16.263405 30.332842-36.610826 32.695656-61.679781 0.539282-5.717212 3.051499-10.43056 6.701632-14.682397 6.67298-7.77508 13.69286-15.604396 14.809287-26.243711 2.89391-27.565822 2.717901-54.608735-16.650215-77.492932-4.442172-5.248537-6.297426-11.32186-4.815679-18.286482 0.757247-3.561106 1.3743-7.208169 1.49812-10.835789 0.224104-6.550183 3.787256-10.588149 9.049097-13.775748 12.673647-7.676843 26.220175-13.619182 39.966247-18.87386 18.478863-7.062859 26.910906-20.72809 28.91147-39.491433 0.903579-8.477069 1.942235-16.940834 2.824325-25.419949 0.650823-6.261611 2.278903-12.246929 4.574179-18.08796 1.535983-3.90903 4.441149-5.78475 8.500605-5.590322 6.238075 0.299829 10.819416 1.820462 13.865799 8.864902 16.195867 37.442774 27.02347 76.260871 31.099299 116.815519 8.228405 81.882915-7.284917 159.041226-47.559179 230.944859C816.997436 784.776593 771.249509 832.012408 713.565738 867.540575z" fill="#ffffff" p-id="2647"></path></svg>