<?xml version="1.0" standalone="no"?><!DOCTYPE svg PUBLIC "-//W3C//DTD SVG 1.1//EN" "http://www.w3.org/Graphics/SVG/1.1/DTD/svg11.dtd"><svg t="1673321046463" class="icon" viewBox="0 0 1024 1024" version="1.1" xmlns="http://www.w3.org/2000/svg" p-id="8837" xmlns:xlink="http://www.w3.org/1999/xlink" width="32" height="32"><path d="M889.4464 437.8624s-22.9376-6.9632-35.1232-10.3424c-12.1856-3.3792-27.136-5.5296-32.6656-6.144-3.3792-0.512-18.6368-1.6384-21.9136-1.536H169.0624c-41.7792 0-78.6432 38.4-75.9808 80.6912 0.9216 215.1424 59.1872 320.3072 129.024 415.0272H10.24c0 47.4112 30.208 98.2016 87.04 98.2016h763.6992c66.1504 0 94.6176-59.392 94.6176-98.0992 0 0-22.2208-0.1024-49.7664-0.1024H737.4848c16.7936-24.4736 32.256-48.5376 46.4896-73.3184l27.4432 6.3488c64.2048 14.9504 156.16-17.92 171.3152-91.7504L1010.688 621.1584c20.2752-98.816-64.8192-166.0928-121.2416-183.296zM282.9312 862.4128l-6.5536 2.4576c-16.4864 5.4272-29.2864-9.5232-41.1648-28.672 0 0-35.0208-58.368-55.5008-128.4096s-23.4496-141.312-23.4496-141.312c-1.4336-21.7088 3.8912-43.52 18.6368-48.4352l6.4512-2.1504c16.4864-5.4272 35.9424 7.68 38.1952 29.5936 0 0 2.7648 70.5536 23.4496 141.312s55.5008 128.4096 55.5008 128.4096c10.4448 20.7872 0.7168 39.0144-15.5648 47.2064zM931.9424 634.88l-16.5888 80.4864c-8.4992 41.5744-58.1632 61.2352-95.744 55.5008 27.8528-65.3312 46.4896-140.3904 53.4528-239.8208 32.4608 13.7216 69.5296 52.1216 58.88 103.8336zM359.0656 206.966784c-26.0096 22.3232-38.6048 47.2064-37.0688 73.9328 2.3552 44.032 42.2912 72.6016 46.7968 75.6736 3.9936 2.7648 8.6016 4.096 13.1072 4.096 7.3728 0 14.6432-3.584 19.1488-10.1376 7.2704-10.5472 4.608-25.088-6.0416-32.256-0.3072-0.1024-25.6-18.432-26.7264-39.8336-0.6144-11.5712 6.4512-23.7568 20.8896-36.1472 25.9072-22.2208 39.1168-47.5136 39.1168-75.1616 0-44.8512-35.1232-76.1856-39.1168-79.5648-9.728-8.2944-24.2688-7.168-32.6656 2.4576s-7.2704 24.2688 2.2528 32.768c0.2048 0.2048 23.1424 20.5824 22.9376 44.6464 0.1024 13.2096-7.5776 26.5216-22.6304 39.5264zM482.9696 206.966784c-26.0096 22.3232-38.6048 47.2064-37.0688 73.9328 2.3552 44.032 42.2912 72.6016 46.7968 75.6736 3.9936 2.7648 8.6016 4.096 13.1072 4.096 7.3728 0 14.6432-3.584 19.1488-10.1376 7.2704-10.5472 4.608-25.088-6.0416-32.256-0.2048-0.2048-25.6-18.432-26.7264-39.936-0.6144-11.5712 6.4512-23.7568 20.8896-36.1472 25.9072-22.2208 39.1168-47.5136 39.1168-75.1616 0-44.8512-35.1232-76.1856-39.1168-79.5648-9.728-8.2944-24.2688-7.168-32.6656 2.4576s-7.2704 24.2688 2.2528 32.768c0.2048 0.2048 23.1424 20.5824 22.9376 44.6464 0.2048 13.312-7.5776 26.624-22.6304 39.6288zM606.8736 206.966784c-26.0096 22.3232-38.5024 47.2064-37.0688 73.9328 2.3552 44.032 42.2912 72.6016 46.7968 75.6736 3.9936 2.7648 8.6016 4.096 13.1072 4.096 7.3728 0 14.6432-3.584 19.1488-10.1376 7.2704-10.5472 4.608-25.088-6.0416-32.256-0.2048-0.2048-25.6-18.432-26.7264-39.936-0.6144-11.5712 6.4512-23.7568 20.8896-36.1472 25.9072-22.2208 39.1168-47.5136 39.1168-75.1616 0-44.8512-35.1232-76.1856-39.1168-79.5648-9.728-8.2944-24.2688-7.168-32.6656 2.4576s-7.2704 24.2688 2.2528 32.768c0.2048 0.2048 23.1424 20.5824 22.9376 44.6464 0.2048 13.312-7.4752 26.624-22.6304 39.6288z" p-id="8838" fill="#ffffff"></path></svg>