<?xml version="1.0" standalone="no"?><!DOCTYPE svg PUBLIC "-//W3C//DTD SVG 1.1//EN" "http://www.w3.org/Graphics/SVG/1.1/DTD/svg11.dtd"><svg t="1673320365672" class="icon" viewBox="0 0 1024 1024" version="1.1" xmlns="http://www.w3.org/2000/svg" p-id="1368" xmlns:xlink="http://www.w3.org/1999/xlink" width="32" height="32"><path d="M532.87 568.25l-5.56-209.34c21.87-13.35 36.51-37.44 36.51-64.88 0-41.88-34.07-75.95-75.95-75.95s-75.95 34.07-75.95 75.95c0 27.64 14.84 51.86 36.97 65.15l7.14 269.09c0.39 14.72 9.01 27.97 22.29 34.33a39.202 39.202 0 0 0 40.71-4.23c44.94-34.37 76.82 0.11 80.31 4.15 22.22 25.8 14.07 55.03-0.98 73.78-16.43 20.46-48.45 37.49-84.6 18.09-19.11-10.26-42.84-3.06-53.08 16-10.24 19.08-3.07 42.85 16 53.08 22.08 11.85 45.7 17.57 69.02 17.57 42.87 0 84.67-19.37 113.81-55.68 43.01-53.59 42.69-123.53-0.78-174-33.08-38.42-77.77-53.7-125.86-43.11z m-45-276.67c1.35 0 2.45 1.1 2.45 2.45 0 2.7-4.9 2.7-4.9 0 0-1.35 1.1-2.45 2.45-2.45zM550.68 529.21l0.09-0.09-0.09 0.09z" fill="#ffffff" p-id="1369"></path><path d="M800.12 224.32c-168.13-168.12-441.68-168.12-609.81 0-168.13 168.13-168.13 441.69 0 609.81 168.13 168.12 441.69 168.13 609.81 0 168.12-168.13 168.13-441.69 0-609.81zM744.69 778.7C616.5 906.89 413.44 915.56 275.05 804.85l156.47-166.28V527.69l-1.54 1.54-210.37 220.18c-110.72-138.4-102.05-341.46 26.14-469.65S577 142.9 715.39 253.61L550.35 428.46l0.3 100.78 220.18-220.18c110.72 138.39 102.05 341.45-26.14 469.64zM550.65 529.24l0.03-0.03-0.03 0.03z" fill="#ffffff" p-id="1370"></path><path d="M550.77 529.12c0.15-0.15 0.28-0.28 0.39-0.38-0.15 0.14-0.29 0.28-0.39 0.38zM551.16 528.73c0.14-0.14 0.28-0.27 0.37-0.37-0.08 0.08-0.2 0.21-0.37 0.37zM551.64 528.26c0.03-0.03 0.03-0.03 0 0zM551.53 528.37l0.11-0.11-0.11 0.11z" fill="#ffffff" p-id="1371"></path></svg>