<?xml version="1.0" standalone="no"?><!DOCTYPE svg PUBLIC "-//W3C//DTD SVG 1.1//EN" "http://www.w3.org/Graphics/SVG/1.1/DTD/svg11.dtd"><svg t="1673320169737" class="icon" viewBox="0 0 1024 1024" version="1.1" xmlns="http://www.w3.org/2000/svg" p-id="1144" xmlns:xlink="http://www.w3.org/1999/xlink" width="32" height="32"><path d="M385.390417 463.407282l257.287831 68.940139c0.943488 5.442966 0.838088 10.617825-0.35918 15.291265-0.900509 3.52222-2.446725 6.90527-4.643764 10.0591l-260.045641-69.678966c-0.25685-3.964288 0.14224-7.820106 1.149173-11.478426C380.046712 471.951889 382.279566 467.50153 385.390417 463.407282L385.390417 463.407282zM170.709987 794.85002c-14.626115 54.586223 68.152193 76.766384 82.778308 22.180162 7.813966-29.163203 30.633694-49.354058 59.838853-55.555294l318.838675-67.784826c137.653103-31.005155 174.044942-191.307094 73.282027-283.353486l-24.882714-22.394033-103.573937 22.017456 71.247694 64.153112c47.02399 48.740074 38.358633 117.02939-33.599236 135.731334l-318.688249 67.747987C235.136322 690.512696 186.927343 734.323505 170.709987 794.85002L170.709987 794.85002zM538.931373 260.405845l-73.589019-66.261123c-22.187325-19.970844-31.858592-48.869011-24.044626-78.030168 14.627139-54.588269-68.152193-76.768431-82.778308-22.181185-16.21838 60.526515 3.632737 122.57264 49.835012 164.166967l27.012214 24.326035L538.931373 260.405845 538.931373 260.405845zM580.729338 904.71422c7.813966-29.16218-1.856277-58.060347-24.048719-78.033237l-73.594135-66.26317 103.56882-22.019503 27.012214 24.326035c46.210461 41.586141 66.052368 103.641475 49.833989 164.16799C648.876414 981.479581 566.102199 959.300442 580.729338 904.71422L580.729338 904.71422zM445.026656 610.863658l-73.475432-66.153676c-52.473095-47.665603-27.342742-118.983905 38.766932-134.346801l315.752384-67.130933c60.815087-12.919241 109.024066-56.730049 125.241422-117.255541 14.627139-54.587246-68.147076-76.766384-82.773192-22.179139-7.813966 29.161157-30.637788 49.353035-59.841923 55.552224l-316.0297 67.176982c-131.058918 26.494421-181.711552 188.429557-78.218456 282.030351l27.012214 24.327058L445.026656 610.863658 445.026656 610.863658zM411.324066 534.404266l174.029592 46.63104-55.536874 11.809977-76.299757-20.444635L411.324066 534.404266 411.324066 534.404266zM492.213351 427.982468l76.29464 20.442588 42.196031 37.996382-174.028569-46.63104L492.213351 427.982468z" p-id="1145" fill="#ffffff"></path></svg>