<?xml version="1.0" standalone="no"?><!DOCTYPE svg PUBLIC "-//W3C//DTD SVG 1.1//EN" "http://www.w3.org/Graphics/SVG/1.1/DTD/svg11.dtd"><svg t="1673320813364" class="icon" viewBox="0 0 1024 1024" version="1.1" xmlns="http://www.w3.org/2000/svg" p-id="5211" xmlns:xlink="http://www.w3.org/1999/xlink" width="32" height="32"><path d="M801.6 485.1V128.6c-0.8 0.1-1.6 0.3-2.4 0.4-118.6 19.7-184.1 76-253.9 167.3 2.7 4.5 7.4 12.4 15.9 26.6 2.5 4.2 3.8 9 3.8 13.9 0 13.5-10.1 25.1-23.5 27-1.3 0.2-2.5 0.3-3.7 0.3-9.6 0-18.5-5.1-23.4-13.3-0.8-1.4-1.7-2.9-2.5-4.3-11.1 19.7-23.6 45.1-29.3 56.8-4.5 9.3-14.1 15.3-24.5 15.3-0.6 0-1.1 0-1.7-0.1h-0.2c-9-0.6-17.1-5.7-21.6-13.5s-4.9-17.3-1-25.5c12-25.1 29.1-59.3 42.3-79.8 0.1-0.2 0.3-0.5 0.4-0.6 0 0 1.4-2.1 2-3.1-69.8-91.1-135.2-147.3-253.8-167-0.6-0.1-1.2-0.2-1.7-0.3v768h606.3c15.2 0 27.4 12.3 27.4 27.5s-12.3 27.5-27.4 27.5H212.9c-24.9 0-45-20.2-45-45v-785c0-6.2 1.4-12.5 4.1-18.1 7-14.7 20-25.4 35.6-29.4 3.4-0.8 6.8-1.3 10.3-1.3 2 0 4.1 0.2 6.1 0.4l2.6 0.4c2.3 0.4 4.5 0.7 6.8 1.1C360.9 96 434.6 155 511.9 250c77.4-95.1 151-154 278.3-175.2 2.8-0.5 5.5-0.9 8.1-1.3l1.2-0.2c2-0.3 4.1-0.5 6.2-0.5 3.4 0 6.8 0.4 10.2 1.2 18.1 4.5 32.9 18.4 38.6 36.4 1.3 4.1 2 8.4 2 12.8v362.3c0 7.3-2.8 14.2-8 19.4-5.2 5.2-12.1 8-19.4 8-0.6 0-1.2 0-1.8-0.1-14.4-0.7-25.7-12.9-25.7-27.7z" fill="#ffffff" p-id="5212"></path><path d="M317.3 513.1c-15.1 0-27.5-12.3-27.5-27.5 0-15.1 12.3-27.5 27.5-27.5h206.5c15.1 0 27.5 12.3 27.5 27.5 0 15.1-12.3 27.5-27.5 27.5H317.3zM317.3 640.1c-15.1 0-27.5-12.3-27.5-27.5s12.3-27.5 27.5-27.5h124.5c15.1 0 27.5 12.3 27.5 27.5s-12.3 27.5-27.5 27.5H317.3zM317.3 775.8c-15.1 0-27.5-12.3-27.5-27.5s12.3-27.5 27.5-27.5h124.5c15.1 0 27.5 12.3 27.5 27.5s-12.3 27.5-27.5 27.5H317.3zM835.4 656.4c0 90.6-73.4 164-164 164s-164-73.4-164-164 73.4-164 164-164 164 73.5 164 164z m-164-115.9c-64 0-115.9 51.9-115.9 115.9s51.9 115.9 115.9 115.9 115.9-51.9 115.9-115.9-51.8-115.9-115.9-115.9z" fill="#ffffff" p-id="5213"></path><path d="M848 852.3c-10.6 9.7-27.1 8.9-36.7-1.7l-67.6-74.3 38.5-35 67.6 74.3c9.6 10.6 8.8 27-1.8 36.7z" fill="#ffffff" p-id="5214"></path></svg>