<?xml version="1.0" standalone="no"?><!DOCTYPE svg PUBLIC "-//W3C//DTD SVG 1.1//EN" "http://www.w3.org/Graphics/SVG/1.1/DTD/svg11.dtd"><svg t="1673333641090" class="icon" viewBox="0 0 1024 1024" version="1.1" xmlns="http://www.w3.org/2000/svg" p-id="28870" xmlns:xlink="http://www.w3.org/1999/xlink" width="32" height="32"><path d="M512 85.333333a426.666667 426.666667 0 0 0 0 853.333334c81.493333 0 205.226667-33.28 205.226667-65.28a20.48 20.48 0 0 0-2.986667-11.093334l-21.333333-37.12a21.76 21.76 0 0 0-18.346667-10.24A423.68 423.68 0 0 1 512 853.333333a341.333333 341.333333 0 1 1 341.333333-341.333333c0 42.666667-30.72 139.52-122.88 139.52a110.08 110.08 0 0 1-16.64 0c-34.986667-7.253333-57.173333-37.546667-47.36-90.88l42.666667-235.093333a21.333333 21.333333 0 0 0-20.906667-26.88h-42.666666a21.333333 21.333333 0 0 0-20.906667 17.493333l-3.413333 19.2A157.44 157.44 0 0 0 517.546667 298.666667a213.333333 213.333333 0 0 0-205.226667 177.493333l-10.666667 62.293333a165.973333 165.973333 0 0 0 6.826667 85.333334 152.32 152.32 0 0 0 148.053333 98.986666 207.36 207.36 0 0 0 142.933334-62.72 135.68 135.68 0 0 0 130.986666 78.08C872.533333 736.853333 938.666667 602.453333 938.666667 512A426.666667 426.666667 0 0 0 512 85.333333zM384 571.306667A85.333333 85.333333 0 0 1 384 554.666667l11.52-62.293334a133.546667 133.546667 0 0 1 128-107.52c42.666667 0 80.64 30.293333 73.813333 69.12l-19.626666 106.666667a119.466667 119.466667 0 0 1-94.72 82.346667 165.546667 165.546667 0 0 1-20.48 0A72.96 72.96 0 0 1 384 571.306667z" p-id="28871" fill="#ffffff"></path></svg>