<?xml version="1.0" standalone="no"?><!DOCTYPE svg PUBLIC "-//W3C//DTD SVG 1.1//EN" "http://www.w3.org/Graphics/SVG/1.1/DTD/svg11.dtd"><svg t="1673320578079" class="icon" viewBox="0 0 1024 1024" version="1.1" xmlns="http://www.w3.org/2000/svg" p-id="3100" xmlns:xlink="http://www.w3.org/1999/xlink" width="32" height="32"><path d="M895.392253 0H127.913179a127.913179 127.913179 0 0 0-127.913179 127.913179v639.565895a127.913179 127.913179 0 0 0 127.913179 127.913179 42.637726 42.637726 0 0 0 0-85.275453 42.637726 42.637726 0 0 1-42.637726-42.637726V319.782947a21.318863 21.318863 0 0 1 21.318863-21.318863h810.1168a21.318863 21.318863 0 0 1 21.318863 21.318863V767.479074a42.637726 42.637726 0 0 1-42.637726 42.637726 42.637726 42.637726 0 0 0 0 85.275453 127.913179 127.913179 0 0 0 127.913178-127.913179V127.913179a127.913179 127.913179 0 0 0-127.913178-127.913179zM127.913179 149.232042a42.637726 42.637726 0 1 1 42.637726 42.637726 42.637726 42.637726 0 0 1-42.637726-42.637726z m127.913179 0a42.637726 42.637726 0 1 1 42.637726 42.637726 42.637726 42.637726 0 0 1-42.637726-42.637726z m127.913179 0a42.637726 42.637726 0 1 1 42.637726 42.637726 42.637726 42.637726 0 0 1-42.637726-42.637726z" p-id="3101" fill="#ffffff"></path><path d="M747.439342 534.293348a31.978295 31.978295 0 0 0-45.19599-45.238627l-30.954989 30.954989a275.269161 275.269161 0 0 0-127.657353-48.990747v-34.110182h31.978295a31.978295 31.978295 0 0 0 0-63.956589h-127.913179a31.978295 31.978295 0 0 0 0 63.956589h31.978295v34.110182A275.09861 275.09861 0 0 0 352.017068 520.180261l-30.954989-31.12554a31.978295 31.978295 0 1 0-45.19599 45.238627l28.524639 28.524639a277.145221 277.145221 0 1 0 414.523975 0zM511.652716 938.029979a191.869768 191.869768 0 1 1 191.869768-191.869769A191.869768 191.869768 0 0 1 511.652716 938.029979z" p-id="3102" fill="#ffffff"></path><path d="M553.01131 659.605626l-63.956589 63.956589a31.978295 31.978295 0 0 0 45.19599 45.238628l63.956589-63.956589a31.978295 31.978295 0 1 0-45.19599-45.238628z" p-id="3103" fill="#ffffff"></path></svg>