<?xml version="1.0" standalone="no"?><!DOCTYPE svg PUBLIC "-//W3C//DTD SVG 1.1//EN" "http://www.w3.org/Graphics/SVG/1.1/DTD/svg11.dtd"><svg t="1673320103883" class="icon" viewBox="0 0 1024 1024" version="1.1" xmlns="http://www.w3.org/2000/svg" p-id="825" xmlns:xlink="http://www.w3.org/1999/xlink" width="32" height="32"><path d="M506.13952344 96.88291016c0 16.11631055-12.20932617 29.30238281-28.32563672 30.2791289-209.02366406 14.65119141-373.11700781 191.44223437-368.23327735 404.86125586 4.88373047 210.00041016 175.81429687 381.90772266 386.30308008 387.27982617 213.90739453 5.37210352 391.18681055-159.20961328 405.83800196-368.23327734 0.97674609-16.11631055 14.65119141-28.32563672 30.2791289-28.32563672 17.58142969 0 31.74424805 14.65119141 30.27912891 32.23262109-16.60468359 239.79116602-218.30275195 428.79153516-462.97764844 425.86129688-246.62838867-3.41861133-447.34971094-204.62830664-451.25669531-450.76832227-3.41861133-245.65164258 185.58175781-446.86133789 425.86129687-463.95439453 17.58142969-0.97674609 32.23262109 13.18607227 32.2326211 30.76750196z m0 245.65164257c0 15.13956445-10.74420703 27.83726367-25.39539844 30.27912891-75.69782227 12.20932617-131.86072266 80.58155273-126.48861914 160.18635938 4.88373047 75.20944922 65.44198828 135.76770703 140.16306445 141.62818359 80.58155273 5.86047656 148.9537793-50.79079687 161.65147852-126.48861914 2.44186523-14.65119141 15.13956445-25.39539844 30.2791289-25.39539844 19.04654883 0 33.20936719 17.09305664 30.27912891 35.65123242-17.09305664 104.02345898-109.3955625 182.16314648-218.791125 178.25616211-110.86068164-3.90698437-200.72132227-94.25599805-205.11667969-205.11667969-4.39535742-109.88393555 74.23270313-202.18644141 178.25616211-219.27949804 18.06980273-2.93023828 35.16285937 11.23258008 35.16285938 30.2791289z m188.51199609 41.51170899l-170.44219336 165.07008984c-12.20932617 11.72095312-31.255875 11.23258008-42.97682812-0.48837304l-0.48837305-0.48837305c-11.72095312-11.72095312-11.72095312-30.76750195 0-42.48845508l0.48837305-0.48837305 169.95382031-164.58171679-38.09309766-91.81413282 179.72128125-179.72128125L844.09367187 192.1156543l121.60488868 49.81405078-179.72128125 179.72128125-91.32575977-37.60472461z m-9.27908789-120.62814258l25.39539845 61.04663086 61.04663085 25.39539844 85.95365625-85.95365625-60.06988477-24.41865235-25.88377148-62.02337695-86.4420293 85.95365625z" p-id="826" fill="#ffffff"></path></svg>