<?xml version="1.0" standalone="no"?><!DOCTYPE svg PUBLIC "-//W3C//DTD SVG 1.1//EN" "http://www.w3.org/Graphics/SVG/1.1/DTD/svg11.dtd"><svg t="1673333488023" class="icon" viewBox="0 0 1024 1024" version="1.1" xmlns="http://www.w3.org/2000/svg" p-id="24254" xmlns:xlink="http://www.w3.org/1999/xlink" width="32" height="32"><path d="M170.666667 938.666667c-25.6 0-42.666667-17.066667-42.666667-42.666667L128 256c0-25.6 17.066667-42.666667 42.666667-42.666667l810.666667 0c25.6 0 42.666667 17.066667 42.666667 42.666667s-17.066667 42.666667-42.666667 42.666667L213.333333 298.666667l0 597.333333C213.333333 921.6 196.266667 938.666667 170.666667 938.666667z" p-id="24255" fill="#ffffff"></path><path d="M853.333333 810.666667 42.666667 810.666667c-25.6 0-42.666667-17.066667-42.666667-42.666667s17.066667-42.666667 42.666667-42.666667l768 0L810.666667 128c0-25.6 17.066667-42.666667 42.666667-42.666667s42.666667 17.066667 42.666667 42.666667l0 640C896 793.6 878.933333 810.666667 853.333333 810.666667z" p-id="24256" fill="#ffffff"></path><path d="M981.333333 896c-8.533333 0-17.066667-4.266667-25.6-8.533333l-938.666667-682.666667C0 192-4.266667 166.4 8.533333 145.066667c12.8-17.066667 42.666667-21.333333 59.733333-8.533333l938.666667 682.666667c17.066667 12.8 21.333333 42.666667 8.533333 59.733333C1006.933333 891.733333 994.133333 896 981.333333 896z" p-id="24257" fill="#ffffff"></path></svg>