<?xml version="1.0" encoding="UTF-8"?>
<svg width="157px" height="48px" viewBox="0 0 157 48" version="1.1" xmlns="http://www.w3.org/2000/svg" xmlns:xlink="http://www.w3.org/1999/xlink">
    <!-- Generator: Sketch 57.1 (83088) - https://sketch.com -->
    <title>6EBB9822-2B86-4A51-8F83-728171047DE1</title>
    <desc>Created with Sketch.</desc>
    <defs>
        <linearGradient x1="18.2206406%" y1="68.651153%" x2="67.9893238%" y2="12.3026555%" id="linearGradient-1">
            <stop stop-color="#DE761B" offset="0%"></stop>
            <stop stop-color="#FFCB02" stop-opacity="0" offset="100%"></stop>
        </linearGradient>
        <linearGradient x1="49.9879223%" y1="91.0325767%" x2="49.9879223%" y2="-11.3665765%" id="linearGradient-2">
            <stop stop-color="#DE761B" offset="0%"></stop>
            <stop stop-color="#FFCB02" stop-opacity="0" offset="100%"></stop>
        </linearGradient>
        <linearGradient x1="67.1753212%" y1="102.834891%" x2="59.7861531%" y2="74.3068536%" id="linearGradient-3">
            <stop stop-color="#E78B24" offset="0%"></stop>
            <stop stop-color="#FFCB02" offset="100%"></stop>
        </linearGradient>
    </defs>
    <g id="页面-1" stroke="none" stroke-width="1" fill="none" fill-rule="evenodd">
        <g id="01首页" transform="translate(-360.000000, -16.000000)">
            <g id="编组">
                <g id="top" transform="translate(240.000000, 0.000000)">
                    <g id="logo-yeahmobi" transform="translate(120.000000, 16.000000)">
                        <path d="M50.4344883,32.0792998 C52.427289,31.9017235 54.4905566,30.8982765 56.2324955,29.9512029 C56.5594614,29.7764452 56.9456194,29.9061041 56.8272352,30.3627289 L55.8857989,33.9903591 C55.8012455,34.5206412 55.431915,34.9614551 54.924632,35.1375583 C54.769605,35.2080251 54.0142011,35.5293537 53.8507181,35.5913645 C50.2625494,36.9302334 45.1128366,36.6709156 42.3843627,33.8747935 C40.614237,32.0802394 39.7310533,29.8253022 39.7347995,27.109982 C39.7347995,21.8869838 43.3286176,17.5687792 48.7179174,17.5687792 C51.0550363,17.5154738 53.3063647,18.449775 54.9189946,20.1422262 C56.4885114,21.7154155 57.3815802,23.8393617 57.4078815,26.0614363 C57.4219749,26.8309336 57.4501616,27.668079 57.4078815,28.0739677 C57.3768761,28.4291203 57.1823878,28.6123339 56.7285817,28.6151526 L46.6715619,28.6348833 C46.5551735,28.6470473 46.4422542,28.5907867 46.3818692,28.4905475 C46.3214842,28.3903084 46.3245345,28.2641866 46.3896948,28.1669838 L48.0301616,25.5681688 C48.2209255,25.2630588 48.5582948,25.0809864 48.9180431,25.0889946 L52.187702,25.0889946 C52.1897436,24.6712154 52.093171,24.2588503 51.9058348,23.8854219 C51.7004842,23.487243 51.4288275,23.1269404 51.1025135,22.8199641 C49.7770733,21.6229267 47.7688679,21.5963759 46.4122442,22.7579533 C45.9762979,23.1446823 45.6357519,23.6270422 45.4172531,24.167289 C43.8528905,27.9978636 45.7864991,32.4823698 50.4260323,32.0595691 L50.4344883,32.0792998 Z" id="路径" fill="#FDB812"></path>
                        <path d="M85.3240036,35.7971275 C85.3240036,35.9577917 85.2338061,36.2001975 84.8532855,36.2001975 L80.5519928,36.2001975 C80.3575045,36.2001975 80.0474506,36.1297307 80.0474506,35.8084022 L80.0474506,15.7563734 C80.0869052,15.4794454 80.2656901,15.2421297 80.5209874,15.1278097 L84.7067145,12.6361041 C85.0195871,12.4500718 85.3099102,12.5910054 85.3099102,13.0194434 L85.3099102,19.2909874 C85.8365401,18.7156429 86.4898562,18.2707703 87.2181508,17.9915799 C88.079035,17.7101064 88.9820735,17.5794662 89.8874327,17.6054219 C91.9817056,17.6054219 93.5939856,18.2029803 94.7101795,19.4037343 C95.8263734,20.6044883 96.4013824,22.3464273 96.4013824,24.6408259 C96.4013824,28.1416158 96.3506463,32.2878815 96.3506463,35.7830341 C96.3506463,36.1663734 96.1110592,36.2001975 95.9532136,36.2001975 L91.4320646,36.2001975 C91.21232,36.1880653 91.0422773,36.0030189 91.0487253,35.7830341 C91.0487253,32.8262478 91.0487253,29.2268043 91.0487253,26.2728366 C91.0487253,24.7695452 90.8241712,23.7078456 90.3750628,23.0877379 C89.9297127,22.4591741 89.1968582,22.1434829 88.1680431,22.1434829 C87.2209695,22.1434829 86.5078456,22.4732675 86.0343088,23.1243806 C85.560772,23.7754937 85.3240036,24.8155835 85.3240036,26.2023698 C85.3240036,29.1845242 85.3240036,32.8177917 85.3240036,35.7858528 L85.3240036,35.7971275 Z" id="路径" fill="#FDB812"></path>
                        <path d="M76.4649192,17.089605 L72.6456194,19.3135368 C72.4683474,19.4209718 72.3102156,19.5571937 72.1777199,19.7166068 C72.0790664,19.620772 71.9804129,19.5192998 71.8817594,19.4037343 C71.3714784,18.782347 70.7266859,18.2850182 69.9960682,17.9492998 C69.240677,17.6368534 68.4287567,17.4842584 67.6114722,17.5011311 C65.2964034,17.5011311 63.3336685,18.4106224 61.7232675,20.229605 C60.1128665,22.0485877 59.3048474,24.2866128 59.2992101,26.9436804 C59.2992101,29.649605 60.0781029,31.8970257 61.6358887,33.6859425 C63.1936744,35.4748594 65.1150688,36.3702573 67.4000718,36.37223 C68.2627363,36.3769462 69.1163517,36.1962258 69.9030521,35.8422262 C70.6741206,35.5110431 71.3517633,34.9950665 71.8761221,34.3398743 C71.9268582,34.4498025 71.9775943,34.5512747 72.031149,34.6527469 L72.031149,35.7802154 C72.031149,36.1663734 72.3299282,36.1861041 72.5159605,36.1861041 L76.6706822,36.1861041 C76.7791071,36.1854689 76.8825654,36.1405626 76.9570763,36.061794 C77.0315871,35.9830253 77.070681,35.8772337 77.0652962,35.7689408 L77.0652962,17.4447576 C77.0787759,17.2963132 77.0056177,17.153365 76.8773281,17.0774754 C76.7490386,17.0015858 76.5885268,17.0063067 76.4649192,17.089605 Z M70.7289228,30.0244883 C70.1609728,30.805898 69.2511192,31.2655472 68.2851346,31.2590664 C67.3040555,31.2852138 66.3707572,30.8358868 65.7793357,30.052675 C65.1451346,29.2493537 64.8294434,28.1923519 64.8294434,26.870395 C64.8294434,25.6104488 65.1564093,24.5759964 65.8075224,23.7698564 C66.4064497,23.0169485 67.3160151,22.5782432 68.278088,22.5782432 C69.2401608,22.5782432 70.1497263,23.0169485 70.7486535,23.7698564 C71.3856732,24.5647217 71.7051227,25.5982346 71.7070018,26.870395 C71.7537336,28.0029977 71.4082705,29.1170416 70.7289228,30.0244883 L70.7289228,30.0244883 Z" id="形状" fill="#FDB812" fill-rule="nonzero"></path>
                        <path d="M101.996445,21.7770557 L101.996445,21.2866068 C102.011995,21.0878608 101.898381,20.9015338 101.714578,20.8243447 L99.8035189,19.6968761 C99.5667504,19.5559425 99.3976302,19.6968761 99.3976302,19.8857271 C99.3976302,24.9593357 99.3694434,30.782711 99.3694434,35.8647756 C99.3608335,35.9469475 99.3859938,36.0290895 99.4391479,36.0923429 C99.492302,36.1555963 99.5688837,36.1945272 99.6513106,36.2001975 L101.680754,36.2001975 C101.897792,36.2001975 101.962621,36.0254399 101.962621,35.8647756 C101.962621,32.5331059 101.982352,28.9815799 101.982352,25.6442729 C101.952033,24.9558903 102.114054,24.2726689 102.450251,23.6712029 C102.733659,23.1775045 103.162958,22.7836518 103.679192,22.5437343 C103.943232,22.4220042 104.219013,22.3275585 104.502244,22.2618671 C104.797102,22.1938007 105.098789,22.1597545 105.4014,22.160395 C106.301355,22.1330328 107.173954,22.4716987 107.81982,23.0990126 C108.465296,23.7247576 108.783806,24.6774686 108.783806,25.9684201 C108.783806,29.1986176 108.803537,32.6684022 108.803537,35.8985996 C108.801467,35.9867264 108.83735,36.071497 108.902062,36.1313553 C108.966773,36.1912136 109.054079,36.2203925 109.141777,36.2114722 L111.078205,36.2114722 C111.166119,36.2264307 111.255926,36.1989038 111.320358,36.1372495 C111.384789,36.0755953 111.416244,35.9870872 111.405171,35.8985996 C111.405171,32.6261221 111.405171,29.1140575 111.405171,25.8359425 C111.405171,24.5590844 111.740592,23.6232855 112.408618,23.0398205 C113.105264,22.4430012 114.000428,22.1291906 114.917235,22.160395 C115.508481,22.1520027 116.091598,22.2987537 116.608438,22.5860144 C117.120367,22.8800675 117.533394,23.3195828 117.795099,23.8487792 C118.091883,24.4634487 118.239628,25.1394101 118.226355,25.8218492 C118.226355,29.0971454 118.257361,32.6176661 118.257361,35.887325 C118.257361,36.0733573 118.339102,36.2001975 118.581508,36.2001975 L120.554578,36.2001975 C120.63503,36.2006859 120.711856,36.1667724 120.765706,36.1069989 C120.819555,36.0472255 120.845297,35.9672895 120.836445,35.887325 C120.836445,32.5528366 120.836445,28.9815799 120.836445,25.6442729 C120.85935,24.5848502 120.608893,23.5373971 120.109228,22.6029264 C119.648315,21.7661926 118.965604,21.0727537 118.136158,20.598851 C117.722518,20.3645668 117.281281,20.1827696 116.822657,20.0576661 C116.36396,19.9294182 115.889601,19.865854 115.413321,19.8688151 C114.475775,19.8591014 113.548377,20.0634761 112.701759,20.4663734 C111.768865,20.9611651 110.975109,21.6822328 110.393268,22.563465 C109.934579,21.7587614 109.297133,21.0702047 108.530126,20.5509336 C107.808589,20.0907196 106.967379,19.8534553 106.111706,19.8688151 C104.515644,19.8094345 102.988812,20.5230055 102.010539,21.7855117 L101.951346,21.7855117 L101.996445,21.7770557 Z" id="路径" fill="#939598"></path>
                        <path d="M151.554327,23.9474327 C151.04444,22.757165 150.220091,21.7281908 149.169731,20.9709156 C148.13813,20.2338851 146.897139,19.8475576 145.629479,19.8688151 C143.939908,19.8438331 142.345006,20.6470743 141.359192,22.0194614 L141.283088,22.0194614 L141.283088,16.1735368 C141.283088,15.8071095 141.099874,15.6661759 140.733447,15.8916697 L138.971777,16.9458528 C138.68991,17.1093357 138.667361,17.1685278 138.667361,17.4193896 C138.667361,23.4936266 138.667361,29.8074506 138.667361,35.8816876 C138.654119,35.967013 138.680717,36.0537005 138.739535,36.1169161 C138.798353,36.1801317 138.882901,36.2129005 138.968959,36.2058348 L140.975853,36.2058348 C141.195709,36.2058348 141.25772,36.0423519 141.25772,35.8816876 L141.25772,34.0523698 L141.333824,34.0523698 C141.665796,34.7353049 142.200249,35.2992852 142.864363,35.6674686 C143.621077,36.0519342 144.462636,36.239055 145.310969,36.2114722 C146.305627,36.2237952 147.291189,36.0209135 148.200108,35.6167325 C149.070139,35.231056 149.841187,34.6527703 150.455045,33.9255296 C151.095552,33.1587067 151.581768,32.2752859 151.88693,31.3238959 C152.220348,30.2895962 152.385929,29.2085637 152.377379,28.1218851 C152.405197,26.6875109 152.124512,25.263902 151.554327,23.9474327 L151.554327,23.9474327 Z M149.355763,30.8588151 C149.226316,31.2919497 149.036542,31.7047065 148.792029,32.0849372 C148.557869,32.4384728 148.279371,32.7605452 147.963339,33.0432855 C147.325808,33.6230122 146.491053,33.9375579 145.629479,33.922711 C144.663354,33.9675485 143.713815,33.6600499 142.957379,33.0573788 C142.279524,32.4849828 141.775658,31.7340664 141.502944,30.8898205 C141.224124,30.1335606 141.050561,29.3425695 140.987127,28.5390485 C140.949266,28.1823106 140.943605,27.8228879 140.970215,27.4651346 C140.985571,27.0594841 141.035549,26.6558865 141.119605,26.2587433 C141.227327,25.7670108 141.384077,25.287317 141.587504,24.8268582 C141.940167,24.0168859 142.513514,23.3224224 143.242065,22.8227828 C143.933523,22.3703033 144.743995,22.1338338 145.570287,22.1434829 C145.989009,22.1410689 146.404613,22.2155909 146.796409,22.3633393 C147.179908,22.5153568 147.53672,22.7275409 147.853411,22.9919031 C148.502768,23.543281 148.993997,24.2572644 149.27684,25.0608079 C149.44913,25.5114563 149.581183,25.9764733 149.671454,26.4504129 C149.759291,26.9586344 149.801739,27.4736629 149.798294,27.9894075 C149.805272,28.9633942 149.655861,29.9321867 149.355763,30.8588151 Z" id="形状" fill="#939598" fill-rule="nonzero"></path>
                        <path d="M154.288438,19.4093716 C154.288438,19.5474865 154.330718,19.9082765 154.742244,19.6912388 L156.636391,18.5496768 C156.820683,18.482589 156.936499,18.2995994 156.918259,18.1043268 L156.918259,16.1058887 C156.918259,15.9677738 156.813968,15.6492639 156.467271,15.8240215 L154.570305,16.9655835 C154.384477,17.0340182 154.268522,17.2195458 154.288438,17.4165709 L154.288438,19.4093716 L154.288438,19.4093716 Z" id="路径" fill="#939598"></path>
                        <path d="M156.901346,20.0266607 C156.901346,19.809623 156.768869,19.6235907 156.450359,19.801167 L154.556212,20.9286355 C154.370383,20.9970703 154.254429,21.1825979 154.274345,21.379623 L154.274345,23.352693 C154.274345,27.462316 154.274345,31.6762298 154.274345,35.8535009 C154.267889,35.9438248 154.30198,36.0323342 154.367359,36.0949893 C154.432738,36.1576444 154.522618,36.1879401 154.612585,36.1776481 L156.560287,36.1776481 C156.648656,36.1894789 156.737412,36.1588036 156.799617,36.0949325 C156.861821,36.0310614 156.89014,35.9415259 156.875978,35.8535009 L156.898528,20.0097487 L156.901346,20.0266607 Z" id="路径" fill="#939598"></path>
                        <path d="M135.967074,23.9953501 C135.42788,22.7971406 134.579563,21.7639848 133.509192,21.001921 C132.424755,20.2441989 131.128153,19.8494951 129.805458,19.8744524 C128.517113,19.8589706 127.25265,20.2226263 126.169372,20.9201795 C125.078138,21.6391889 124.209318,22.648582 123.660754,23.8346858 C123.044401,25.1526419 122.736878,26.5938528 122.761598,28.0485996 C122.762352,28.7569252 122.835071,29.4633414 122.978636,30.1569659 C123.113139,30.8265975 123.325022,31.4783255 123.610018,32.0990305 C124.142068,33.308008 124.996244,34.3474502 126.079174,35.1037343 C128.342515,36.5885527 131.271219,36.5885527 133.53456,35.1037343 C134.608836,34.350049 135.451309,33.3113562 135.967074,32.1046679 C136.535436,30.8245952 136.823738,29.4378603 136.812675,28.037325 C136.826533,26.6446922 136.538028,25.2656372 135.967074,23.9953501 L135.967074,23.9953501 Z M134.075745,29.5763196 C133.98728,30.0620744 133.860032,30.5399592 133.695224,31.005386 C133.408594,31.8395852 132.894004,32.5768062 132.209785,33.1334829 C131.503777,33.6740464 130.63212,33.9529764 129.743447,33.922711 C128.238276,33.922711 127.136176,33.3110592 126.425871,32.0990305 C125.718856,30.8672154 125.353929,29.4688161 125.368869,28.0485996 C125.352809,27.015611 125.530641,25.9887742 125.893142,25.0213465 C126.190547,24.1869373 126.715905,23.4526081 127.409587,22.9017056 C128.100227,22.3867404 128.944294,22.119618 129.805458,22.1434829 C130.680245,22.1176812 131.535947,22.4022494 132.221059,22.9468043 C132.555734,23.2227157 132.849885,23.5443842 133.094847,23.9023339 C133.349186,24.2696544 133.55656,24.6673582 133.712136,25.0861759 C134.052314,26.036302 134.220306,27.0394842 134.208223,28.0485996 C134.208415,28.5612253 134.160285,29.0727278 134.06447,29.5763196 L134.075745,29.5763196 Z" id="形状" fill="#939598" fill-rule="nonzero"></path>
                        <path d="M45.9048833,12.946158 L45.9048833,12.946158 C45.110018,13.5098923 43.2863375,14.2850269 42.8043447,14.9784201 C41.9841113,16.1594434 41.0905925,17.4391203 40.1717056,18.7582585 C38.666535,20.9173609 36.5440754,24.3251346 35.1460144,26.3686715 C34.9101874,25.5221514 34.551197,24.7148978 34.0805566,23.9728007 C32.9925494,22.2252244 31.3436266,19.7842549 30.0667684,17.6364273 L34.5766427,12.4190664 C35.7548474,11.0576481 36.6117235,10.4459964 38.7736445,11.0294614 L45.907702,12.9433393" id="路径" fill="#FFCB02"></path>
                        <path d="M45.9048833,12.946158 L45.9048833,12.946158 C45.110018,13.5098923 43.2863375,14.2850269 42.8043447,14.9784201 C41.9841113,16.1594434 41.0905925,17.4391203 40.1717056,18.7582585 C38.666535,20.9173609 36.5440754,24.3251346 35.1460144,26.3686715 C34.9101874,25.5221514 34.551197,24.7148978 34.0805566,23.9728007 C32.9925494,22.2252244 31.3436266,19.7842549 30.0667684,17.6364273 L34.5766427,12.4190664 C35.7548474,11.0576481 36.6117235,10.4459964 38.7736445,11.0294614 L45.907702,12.9433393" id="路径" fill="#FFCB02"></path>
                        <path d="M45.9048833,12.946158 L45.9048833,12.946158 C45.110018,13.5098923 43.2863375,14.2850269 42.8043447,14.9784201 C41.9841113,16.1594434 41.0905925,17.4391203 40.1717056,18.7582585 C38.666535,20.9173609 36.5440754,24.3251346 35.1460144,26.3686715 C34.9101874,25.5221514 34.551197,24.7148978 34.0805566,23.9728007 C32.9925494,22.2252244 31.3436266,19.7842549 30.0667684,17.6364273 L34.5766427,12.4190664 C35.7548474,11.0576481 36.6117235,10.4459964 38.7736445,11.0294614 L45.907702,12.9433393" id="路径" fill="#FDB812"></path>
                        <path d="M45.9048833,12.946158 L45.9048833,12.946158 C45.110018,13.5098923 43.2863375,14.2850269 42.8043447,14.9784201 C41.9841113,16.1594434 41.0905925,17.4391203 40.1717056,18.7582585 C38.666535,20.9173609 36.5440754,24.3251346 35.1460144,26.3686715 C34.9101874,25.5221514 34.551197,24.7148978 34.0805566,23.9728007 C32.9925494,22.2252244 31.3436266,19.7842549 30.0667684,17.6364273 L34.5766427,12.4190664 C35.7548474,11.0576481 36.6117235,10.4459964 38.7736445,11.0294614 L45.907702,12.9433393" id="路径" fill="url(#linearGradient-1)"></path>
                        <path d="M0,0 L0,0 L24.5421724,26.4955117 L24.8240395,39.2640934 C24.9170557,42.612675 23.0680072,45.0874686 21.2499641,47.9343268 L31.5042908,42.406912 C33.8578815,40.9975763 35.0389048,39.7207181 35.1347397,37.1106284 C35.2080251,35.2108438 35.2813106,30.0808618 35.3489587,28.0091382 C35.4955296,26.0107002 34.9148833,24.5083483 34.0551885,23.0905566 L25.4441472,11.0632855 C23.4964452,8.34044883 22.7551346,6.35328546 17.9464811,5.00877917 L0,0" id="路径" fill="#FFCB02"></path>
                        <path d="M0,0 L0,0 L24.5421724,26.4955117 L24.8240395,39.2640934 C24.9170557,42.612675 23.0680072,45.0874686 21.2499641,47.9343268 L31.5042908,42.406912 C33.8578815,40.9975763 35.0389048,39.7207181 35.1347397,37.1106284 C35.2080251,35.2108438 35.2813106,30.0808618 35.3489587,28.0091382 C35.4955296,26.0107002 34.9148833,24.5083483 34.0551885,23.0905566 L25.4441472,11.0632855 C23.4964452,8.34044883 22.7551346,6.35328546 17.9464811,5.00877917 L0,0" id="路径" fill="url(#linearGradient-2)"></path>
                        <path d="M35.1544704,36.1917415 C35.2192998,33.8973429 35.2813106,29.8018133 35.3405027,28.0175943 C35.4870736,26.0191562 34.9064273,24.5168043 34.0467325,23.0990126 L25.4356912,11.0717415 C23.4879892,8.34890485 22.7466786,6.36174147 17.9380251,5.01723519 L0,0 L0,0 L13.5070736,14.5866248 L31.6424057,32.8657092" id="路径" fill="url(#linearGradient-3)"></path>
                    </g>
                </g>
            </g>
        </g>
    </g>
</svg>