<?xml version="1.0" standalone="no"?><!DOCTYPE svg PUBLIC "-//W3C//DTD SVG 1.1//EN" "http://www.w3.org/Graphics/SVG/1.1/DTD/svg11.dtd"><svg height="1561" legacy-metrics="false" node-id="1" sillyvg="true" template-height="1561" template-width="1178" version="1.1" viewBox="0 0 1178 1561" width="1178" xmlns="http://www.w3.org/2000/svg" xmlns:xlink="http://www.w3.org/1999/xlink"><defs node-id="81"><linearGradient gradientUnits="userSpaceOnUse" id="paint0_linear_1702_18982" node-id="46" x1="583.826" x2="583.826" y1="205.35" y2="1066.62"><stop offset="0.02" stop-color="#bfd1ff"></stop><stop offset="1" stop-color="#ffffff"></stop></linearGradient><linearGradient gradientUnits="userSpaceOnUse" id="paint1_linear_1702_18982" node-id="49" x1="554.894" x2="554.894" y1="441.723" y2="1283.46"><stop offset="0.02" stop-color="#2575f2"></stop><stop offset="1" stop-color="#6a11c1"></stop></linearGradient><linearGradient gradientUnits="userSpaceOnUse" id="paint2_linear_1702_18982" node-id="52" x1="695.824" x2="695.824" y1="284.35" y2="1145.62"><stop offset="0.02" stop-color="#bfd1ff"></stop><stop offset="1" stop-color="#ffffff"></stop></linearGradient><linearGradient gradientUnits="userSpaceOnUse" id="paint3_linear_1702_18982" node-id="55" x1="554.894" x2="554.894" y1="200.131" y2="501.889"><stop offset="0.02" stop-color="#2575f2"></stop><stop offset="1" stop-color="#6a11c1"></stop></linearGradient><linearGradient gradientUnits="userSpaceOnUse" id="paint4_linear_1702_18982" node-id="58" x1="823.943" x2="823.943" y1="766" y2="357.5"><stop offset="0" stop-color="#a278de"></stop><stop offset="1" stop-color="#80a8f6"></stop></linearGradient><linearGradient gradientUnits="userSpaceOnUse" id="paint5_linear_1702_18982" node-id="61" x1="697.855" x2="1147.15" y1="698.427" y2="470.393"><stop offset="0" stop-color="#e967cd"></stop><stop offset="0.4153" stop-color="#f39399"></stop><stop offset="0.8027" stop-color="#fbb76e"></stop><stop offset="1" stop-color="#fec55e"></stop></linearGradient><linearGradient gradientUnits="userSpaceOnUse" id="paint6_linear_1702_18982" node-id="66" x1="129.5" x2="192" y1="578.921" y2="978.921"><stop offset="0" stop-color="#7eaaf7"></stop><stop offset="1" stop-color="#a671da"></stop></linearGradient><linearGradient gradientUnits="userSpaceOnUse" id="paint7_linear_1702_18982" node-id="69" x1="827.154" x2="295.977" y1="1162.31" y2="1162.31"><stop offset="0" stop-color="#623fe9"></stop><stop offset="0.1676" stop-color="#6d49e8"></stop><stop offset="0.7004" stop-color="#8c65e5"></stop><stop offset="1" stop-color="#976fe4"></stop></linearGradient><linearGradient gradientUnits="userSpaceOnUse" id="paint8_linear_1702_18982" node-id="74" x1="841.212" x2="418.293" y1="1145.55" y2="1496.24"><stop offset="0" stop-color="#8b87ff"></stop><stop offset="1" stop-color="#f68bc6"></stop></linearGradient><linearGradient gradientUnits="userSpaceOnUse" id="paint9_linear_1702_18982" node-id="77" x1="372.331" x2="521.331" y1="1208.49" y2="921.495"><stop offset="0" stop-color="#a376dc"></stop><stop offset="1" stop-color="#7eaaf8"></stop></linearGradient></defs><path d="M 787.72 3.16 C 800.40 -4.17 810.67 1.68 810.67 16.28 L 810.67 1012.85 C 810.67 1018.45 806.73 1025.27 801.83 1028.15 L 138.82 1410.94 C 133.95 1413.76 130.00 1411.48 130.00 1405.88 L 130.00 409.31 C 130.00 394.72 140.29 376.98 153.01 369.64 L 787.72 3.16 Z" fill="url(#paint0_linear_1702_18982)" fill-rule="nonzero" node-id="152" stroke="none" target-height="1412.0835" target-width="680.666" target-x="130.002" target-y="0.04223243"></path><path d="M 893.49 88.50 C 893.49 67.43 878.44 59.15 860.39 69.69 L 247.94 423.31 C 229.88 433.84 214.84 459.42 214.84 480.49 L 214.84 1454.20 C 214.84 1466.52 228.17 1474.22 238.84 1468.06 L 885.49 1094.54 C 890.44 1091.69 893.49 1086.41 893.49 1080.69 L 893.49 88.50 Z" fill="url(#paint1_linear_1702_18982)" fill-rule="nonzero" node-id="154" stroke="none" target-height="1405.0779" target-width="678.65405" target-x="214.837" target-y="65.14772"></path><g node-id="247"><path d="M 872.71 82.16 C 885.40 74.83 895.67 80.68 895.67 95.28 L 895.67 1064.85 C 895.67 1070.45 891.73 1077.27 886.82 1080.15 L 250.82 1462.94 C 245.95 1465.76 242.00 1463.48 242.00 1457.88 L 242.00 488.31 C 242.00 473.72 252.28 455.98 265.01 448.64 L 872.71 82.16 Z" fill="url(#paint2_linear_1702_18982)" fill-opacity="0.6" fill-rule="nonzero" group-id="1" node-id="158" stroke-linecap="butt" stroke-opacity="0.6" stroke-width="1" target-height="1385.0836" target-width="653.666" target-x="242" target-y="79.04222"></path></g><path d="M 247.94 423.31 L 860.39 69.69 C 878.44 59.15 893.49 67.43 893.49 88.50 L 893.49 181.04 L 214.84 573.03 L 214.84 480.49 C 214.84 459.42 229.13 433.84 247.94 423.31 Z" fill="url(#paint3_linear_1702_18982)" fill-rule="nonzero" node-id="161" stroke="none" target-height="507.88727" target-width="678.65405" target-x="214.837" target-y="65.14772"></path><path d="M 277.22 469.66 C 277.22 475.75 272.91 483.17 267.61 486.24 C 262.31 489.31 258.00 486.85 258.00 480.78 C 258.00 474.70 262.30 467.27 267.61 464.21 C 272.92 461.15 277.22 463.57 277.22 469.66 Z" fill="#ffffff" fill-rule="nonzero" node-id="163" stroke="none" target-height="24.63089" target-width="19.21399" target-x="258.002" target-y="462.90756"></path><path d="M 302.22 455.22 C 302.22 461.31 297.92 468.73 292.62 471.80 C 287.31 474.87 283.00 472.42 283.00 466.34 C 283.00 460.26 287.30 452.82 292.62 449.76 C 297.93 446.70 302.22 449.13 302.22 455.22 Z" fill="#ffffff" fill-rule="nonzero" node-id="165" stroke="none" target-height="24.639557" target-width="19.225006" target-x="282.998" target-y="448.46188"></path><path d="M 327.23 440.79 C 327.23 446.88 322.92 454.31 317.62 457.37 C 312.32 460.43 308.00 457.98 308.00 451.90 C 308.00 445.82 312.31 438.38 317.62 435.32 C 322.94 432.26 327.23 434.70 327.23 440.79 Z" fill="#ffffff" fill-rule="nonzero" node-id="167" stroke="none" target-height="24.634125" target-width="19.225006" target-x="308.005" target-y="434.02444"></path><path d="M 600.04 500.91 L 1043.95 242.09 C 1046.96 239.83 1051.47 241.33 1053.73 244.34 L 1057.49 249.61 L 1059.75 567.87 C 1059.75 576.90 1055.23 584.42 1047.71 588.94 L 600.79 847.76 L 593.27 844.00 C 590.26 842.49 588.00 838.73 588.00 834.97 L 588.00 521.98 C 588.00 512.95 592.51 504.67 600.04 500.91 Z" fill="url(#paint4_linear_1702_18982)" fill-rule="nonzero" node-id="169" stroke="none" target-height="606.75885" target-width="471.75" target-x="588" target-y="241.0001"></path><path d="M 679.81 533.16 L 1119.96 277.35 C 1125.22 274.34 1132.75 278.11 1132.75 284.88 L 1132.75 600.13 C 1132.75 609.16 1128.23 616.68 1120.71 621.20 L 680.56 877.01 C 675.30 880.02 667.77 876.25 667.77 869.48 L 667.77 554.23 C 667.77 545.96 672.29 537.68 679.81 533.16 Z" fill="#ffffff" fill-rule="nonzero" node-id="171" stroke="none" target-height="601.7524" target-width="464.97803" target-x="667.772" target-y="276.30402"></path><path d="M 1149.16 549.41 L 1145.07 541.36 C 1143.39 541.37 1142.38 541.04 1140.69 541.05 C 1133.97 541.09 1126.90 540.46 1119.51 542.52 C 1101.70 547.34 1088.66 561.55 1079.31 573.04 C 1074.30 579.80 1071.32 587.23 1068.67 593.63 C 1065.36 603.75 1062.38 611.17 1051.97 615.61 C 1039.22 620.39 1023.66 608.04 1011.83 598.01 C 1010.13 596.34 1007.77 595.01 1006.08 593.34 C 1003.03 590.66 999.99 587.99 997.29 585.99 C 982.40 573.29 966.17 559.59 941.27 558.73 C 919.73 557.85 900.28 569.41 887.29 592.03 C 885.96 594.40 884.30 597.77 882.97 600.13 C 874.32 616.34 865.66 632.54 849.87 636.34 C 841.81 638.74 830.68 635.11 818.55 631.14 C 802.37 625.86 783.49 620.25 766.36 626.41 C 746.22 633.26 732.48 642.76 723.81 655.60 C 719.80 661.01 716.49 669.44 713.17 677.87 C 710.19 685.29 707.21 692.71 703.21 699.80 L 707.64 708.53 C 713.30 699.74 716.61 689.63 720.59 680.86 C 723.91 672.42 726.89 665.00 730.23 659.94 C 737.90 648.45 750.63 640.30 768.43 633.80 C 783.54 628.66 800.39 633.61 815.56 638.56 C 828.71 642.86 840.51 646.15 850.92 643.40 C 869.40 638.24 880.05 619.33 888.71 603.13 C 890.04 600.76 891.70 597.39 893.03 595.03 C 899.02 583.55 914.05 564.95 939.29 566.48 C 961.85 567.70 975.38 579.39 990.26 592.09 C 993.30 594.76 996.35 597.43 999.39 600.11 C 1001.08 601.78 1002.77 603.45 1004.80 604.11 C 1017.99 615.14 1035.57 629.84 1053.37 623.34 C 1054.71 622.66 1055.38 622.32 1056.72 621.63 C 1067.46 616.19 1070.76 606.07 1074.40 596.63 C 1076.39 590.56 1079.04 584.15 1083.72 578.40 C 1092.74 567.92 1103.76 554.73 1120.23 550.59 C 1125.93 548.54 1132.33 549.51 1139.06 549.47 C 1144.11 549.44 1146.46 549.09 1149.16 549.41 Z" fill="#8b87ff" fill-opacity="0.8" fill-rule="nonzero" group-id="2" node-id="175" stroke-linecap="butt" stroke-opacity="0.8" stroke-width="1" target-height="167.53882" target-width="445.95" target-x="703.21" target-y="540.98816"></path><path d="M 1052.82 591.53 C 1051.48 592.21 1050.81 592.55 1049.46 593.23 C 1029.66 600.75 1009.40 589.10 995.20 577.74 C 989.79 573.74 985.05 569.39 980.32 565.05 C 967.46 553.01 954.94 541.64 938.08 536.70 C 913.48 529.78 896.81 555.12 892.14 562.55 C 890.81 564.91 889.81 566.26 888.48 568.63 C 879.15 585.17 868.50 604.08 850.03 610.92 C 834.25 616.40 818.41 611.78 802.57 607.17 C 790.43 603.20 777.96 600.25 765.86 601.33 C 751.74 603.43 738.00 612.94 728.32 627.13 C 724.99 632.20 722.01 639.62 718.69 648.05 C 713.40 662.55 706.76 677.73 696.39 688.90 L 690.30 683.55 C 700.34 673.39 706.30 658.55 711.27 645.06 C 714.59 636.63 717.90 628.20 721.90 622.79 C 732.91 606.24 748.66 595.71 765.13 593.26 C 778.58 591.50 792.40 595.45 805.21 599.07 C 820.04 603.36 834.20 607.99 847.63 602.86 C 863.41 597.38 872.73 580.84 882.06 564.29 C 883.39 561.93 884.39 560.58 885.72 558.21 C 899.37 533.57 920.17 523.01 940.73 528.61 C 959.26 533.54 973.13 545.91 986.33 558.62 C 991.07 562.96 995.81 567.31 1001.21 571.31 C 1013.05 581.34 1030.95 591.66 1047.06 585.17 C 1059.15 580.72 1064.79 568.58 1070.10 555.76 C 1072.42 550.36 1074.42 545.97 1077.08 541.25 C 1085.74 526.73 1100.81 514.86 1117.94 510.38 C 1124.66 508.66 1132.06 508.28 1139.13 508.91 C 1148.56 509.19 1157.31 509.81 1164.01 504.72 L 1169.10 511.42 C 1160.38 517.53 1149.28 517.26 1139.86 516.98 C 1133.13 517.02 1127.07 516.72 1121.02 518.10 C 1105.57 522.57 1092.84 532.40 1085.18 545.57 C 1083.19 549.96 1080.52 554.69 1078.87 559.74 C 1072.21 571.56 1066.24 584.72 1052.82 591.53 Z" fill="url(#paint5_linear_1702_18982)" fill-rule="nonzero" node-id="178" stroke="none" target-height="184.17499" target-width="478.79596" target-x="690.304" target-y="504.721"></path><path d="M 779.88 623.45 L 781.38 623.45 L 781.38 817.57 L 779.88 819.07 L 779.88 623.45 Z" fill="#8b87ff" fill-rule="nonzero" node-id="180" stroke="none" target-height="195.62097" target-width="1.5040283" target-x="779.878" target-y="623.452"></path><path d="M 1058.26 657.31 L 1056.00 658.06 L 1056.00 509.09 L 1058.26 509.09 L 1058.26 657.31 Z" fill="#8b87ff" fill-rule="nonzero" node-id="182" stroke="none" target-height="148.97302" target-width="2.2600098" target-x="1056" target-y="509.089"></path><path d="M 974.75 705.46 L 972.49 706.97 L 972.49 549.72 L 974.75 549.72 L 974.75 705.46 Z" fill="#8b87ff" fill-rule="nonzero" node-id="184" stroke="none" target-height="157.24896" target-width="2.256958" target-x="972.489" target-y="549.718"></path><path d="M 876.18 762.64 L 873.93 764.15 L 873.93 509.09 L 876.18 509.09 L 876.18 762.64 Z" fill="#8b87ff" fill-rule="nonzero" node-id="186" stroke="none" target-height="255.05902" target-width="2.256958" target-x="873.926" target-y="509.089"></path><path d="M 1053.75 509.09 C 1053.75 511.35 1055.25 513.60 1056.76 513.60 C 1058.26 513.60 1059.77 512.10 1059.77 509.09 C 1059.77 506.83 1058.26 504.57 1056.76 504.57 C 1055.25 505.33 1053.75 506.83 1053.75 509.09 Z" fill="#7866a2" fill-rule="nonzero" node-id="188" stroke="none" target-height="9.028015" target-width="6.0200195" target-x="1053.75" target-y="504.575"></path><path d="M 970.23 549.72 C 970.23 551.98 971.74 554.23 973.24 554.23 C 974.75 554.23 976.25 552.73 976.25 549.72 C 976.25 547.46 974.75 545.20 973.24 545.20 C 971.74 545.20 970.23 547.46 970.23 549.72 Z" fill="#7866a2" fill-rule="nonzero" node-id="190" stroke="none" target-height="9.028015" target-width="6.018982" target-x="970.231" target-y="545.204"></path><path d="M 871.67 509.09 C 871.67 511.35 873.17 513.60 874.68 513.60 C 876.18 513.60 877.69 512.10 877.69 509.09 C 877.69 506.83 876.18 504.57 874.68 504.57 C 873.17 505.33 871.67 506.83 871.67 509.09 Z" fill="#7866a2" fill-rule="nonzero" node-id="192" stroke="none" target-height="9.028015" target-width="6.018982" target-x="871.669" target-y="504.575"></path><path d="M 777.62 623.45 C 777.62 625.71 779.12 627.97 780.63 627.97 C 782.13 627.97 783.64 626.46 783.64 623.45 C 783.64 621.20 782.13 618.94 780.63 618.94 C 779.12 619.69 777.62 621.20 777.62 623.45 Z" fill="#7866a2" fill-rule="nonzero" node-id="194" stroke="none" target-height="9.028015" target-width="6.019043" target-x="777.621" target-y="618.938"></path><path d="M 11.37 657.87 L 454.52 403.56 C 456.03 402.81 458.29 402.81 459.79 403.56 L 465.06 407.33 L 461.30 725.59 C 461.30 734.62 451.51 741.39 443.99 745.15 L 9.11 1000.96 L 6.85 999.46 C 2.34 997.20 0.08 992.68 0.08 988.17 L 0.08 678.94 C -0.67 669.91 3.84 662.39 11.37 657.87 Z" fill="url(#paint6_linear_1702_18982)" fill-rule="nonzero" node-id="196" stroke="none" target-height="597.96" target-width="464.9979" target-x="0.060123816" target-y="403"></path><path d="M 83.04 701.86 L 521.68 449.06 C 526.95 446.05 533.72 449.81 533.72 455.83 L 533.72 768.07 C 533.72 777.10 529.20 784.62 521.68 789.14 L 83.04 1044.20 C 77.77 1047.21 71.00 1043.45 71.00 1037.43 L 71.00 722.93 C 71.00 713.90 75.51 706.38 83.04 701.86 Z" fill="#ffffff" fill-rule="nonzero" node-id="198" stroke="none" target-height="597.26074" target-width="462.7188" target-x="71.0002" target-y="447.9994"></path><path d="M 332.75 629.62 L 98.00 763.54 L 98.00 773.32 L 332.75 639.40 L 332.75 629.62 Z" fill="#8b87ff" fill-rule="nonzero" node-id="200" stroke="none" target-height="143.706" target-width="234.745" target-x="98" target-y="629.617"></path><path d="M 513.32 608.55 L 99.50 844.05 L 99.50 853.83 L 513.32 617.58 L 513.32 608.55 Z" fill="#8b87ff" fill-rule="nonzero" node-id="202" stroke="none" target-height="245.27802" target-width="413.8131" target-x="99.5049" target-y="608.55"></path><path d="M 514.07 648.43 L 100.26 884.68 L 100.26 893.71 L 514.07 657.46 L 514.07 648.43 Z" fill="#8b87ff" fill-rule="nonzero" node-id="204" stroke="none" target-height="245.27899" target-width="413.813" target-x="100.257" target-y="648.426"></path><path d="M 189.79 923.05 L 110.04 968.19 L 110.04 982.49 L 189.79 937.34 L 189.79 923.05 Z" fill="#f68bc6" fill-rule="nonzero" node-id="206" stroke="none" target-height="59.43805" target-width="79.753" target-x="110.038" target-y="923.048"></path><path d="M 515.58 689.05 L 101.01 924.55 L 101.01 934.33 L 515.58 698.08 L 515.58 689.05 Z" fill="#8b87ff" fill-rule="nonzero" node-id="208" stroke="none" target-height="245.27802" target-width="414.56598" target-x="101.01" target-y="689.055"></path><path d="M 512.57 567.92 L 98.75 804.17 L 98.75 813.20 L 512.57 577.70 L 512.57 567.92 Z" fill="#8b87ff" fill-rule="nonzero" node-id="210" stroke="none" target-height="245.27795" target-width="413.813" target-x="98.752" target-y="567.921"></path><path d="M 309.54 1110.77 L 810.63 822.60 C 815.15 819.59 821.17 821.10 824.18 824.86 L 827.19 828.62 L 824.93 1179.23 C 824.93 1189.01 825.68 1197.29 816.65 1202.56 L 312.55 1503.51 L 309.54 1503.51 C 302.02 1503.51 296.00 1497.49 296.00 1489.97 L 296.00 1134.84 C 296.00 1125.06 301.27 1115.28 309.54 1110.77 Z" fill="url(#paint7_linear_1702_18982)" fill-rule="nonzero" node-id="212" stroke="none" target-height="682.4977" target-width="531.18604" target-x="296.001" target-y="821.0123"></path><path d="M 380.61 1169.01 L 878.70 882.35 C 884.71 878.59 892.99 883.11 892.99 890.63 L 892.99 1245.00 C 892.99 1254.78 887.72 1263.81 879.45 1269.08 L 381.37 1558.75 C 375.35 1562.51 367.07 1558.00 367.07 1550.47 L 367.07 1193.09 C 366.32 1183.31 371.58 1174.28 380.61 1169.01 Z" fill="#ffffff" fill-rule="nonzero" node-id="214" stroke="none" target-height="679.1013" target-width="525.9453" target-x="367.04465" target-y="881.0001"></path><path d="M 791.43 1032.95 L 842.60 1003.60 L 842.60 993.07 L 791.43 1022.41 L 791.43 1032.95 Z" fill="#8b87ff" fill-rule="nonzero" node-id="216" stroke="none" target-height="39.88098" target-width="51.163025" target-x="791.435" target-y="993.069"></path><path d="M 749.30 1030.69 L 842.60 976.52 L 842.60 965.98 L 749.30 1020.15 L 749.30 1030.69 Z" fill="#8b87ff" fill-rule="nonzero" node-id="218" stroke="none" target-height="64.70697" target-width="93.29602" target-x="749.302" target-y="965.983"></path><path d="M 749.30 1003.60 L 842.60 949.43 L 842.60 938.90 L 749.30 993.07 L 749.30 1003.60 Z" fill="#8b87ff" fill-rule="nonzero" node-id="220" stroke="none" target-height="64.703" target-width="93.29602" target-x="749.302" target-y="938.897"></path><path d="M 368.58 1303.69 C 374.60 1290.90 383.62 1271.34 400.18 1269.83 C 418.23 1267.58 435.54 1288.64 443.06 1302.94 C 451.34 1318.74 469.40 1346.58 491.21 1340.56 C 513.03 1334.54 514.54 1302.18 516.04 1284.13 C 517.55 1248.01 519.05 1181.80 566.45 1175.78 C 611.60 1169.76 628.90 1212.65 646.96 1245.00 C 660.50 1268.33 687.59 1299.18 718.44 1286.38 C 740.25 1277.36 752.29 1254.78 762.08 1235.22 C 781.64 1197.60 803.46 1156.22 850.10 1188.57 C 853.87 1191.58 876.44 1208.89 892.99 1226.19 L 892.99 1245.00 C 892.99 1254.78 887.72 1263.81 879.45 1269.08 L 381.37 1558.75 C 375.35 1562.51 367.07 1558.00 367.07 1550.47 L 367.07 1308.96 C 367.07 1306.70 367.82 1305.19 368.58 1303.69 Z" fill="url(#paint8_linear_1702_18982)" fill-rule="nonzero" node-id="222" stroke="none" target-height="384.8319" target-width="525.91895" target-x="367.071" target-y="1175.2695"></path><path d="M 636.97 999.77 L 636.97 1061.47 C 636.97 1067.49 633.96 1072.75 628.70 1075.76 L 554.96 1118.65 L 545.93 1151.00 C 544.43 1155.52 539.16 1157.77 534.65 1155.52 L 511.32 1143.48 L 443.61 1183.36 C 437.59 1187.12 430.07 1182.60 430.07 1175.08 L 430.07 1118.65 L 636.97 999.77 Z" fill="#5039d5" fill-opacity="0.3" fill-rule="nonzero" group-id="3" node-id="226" stroke-linecap="butt" stroke-opacity="0.3" stroke-width="1" target-height="184.93414" target-width="206.90701" target-x="430.067" target-y="999.773"></path><path d="M 564.20 1451.16 L 561.94 1451.91 L 561.94 1150.20 C 562.69 1150.20 563.45 1150.20 564.20 1150.20 L 564.20 1451.16 Z" fill="#8b87ff" fill-rule="nonzero" node-id="229" stroke="none" target-height="301.71008" target-width="2.257019" target-x="561.94" target-y="1150.2"></path><path d="M 424.64 1029.41 L 612.74 921.82 C 614.99 920.32 618.00 921.07 620.26 922.57 L 624.77 926.34 L 623.27 1024.14 C 623.27 1030.16 614.24 1036.18 608.97 1038.44 L 537.50 1082.08 L 428.40 1149.04 L 420.88 1146.03 C 418.62 1144.53 417.11 1142.27 417.11 1140.01 L 417.11 1043.71 C 416.36 1037.69 419.37 1031.67 424.64 1029.41 Z" fill="url(#paint9_linear_1702_18982)" fill-rule="nonzero" node-id="231" stroke="none" target-height="228.03455" target-width="207.72745" target-x="417.04556" target-y="921.0055"></path><path d="M 650.03 954.35 L 650.03 1048.40 C 650.03 1054.42 647.02 1059.69 641.75 1062.70 L 568.02 1105.58 L 558.99 1137.94 C 557.49 1142.45 552.22 1144.71 547.71 1142.45 L 524.38 1130.41 L 456.67 1170.29 C 450.65 1174.05 443.12 1169.54 443.12 1162.01 L 443.12 1067.21 C 443.12 1061.19 446.13 1055.93 451.40 1052.92 L 636.49 946.08 C 642.51 943.07 650.03 946.83 650.03 954.35 Z" fill="#ffffff" fill-rule="nonzero" node-id="233" stroke="none" target-height="226.60138" target-width="206.90604" target-x="443.124" target-y="945.0368"></path><path d="M 608.71 1037.21 C 608.71 1037.21 608.71 1037.20 608.72 1037.20 L 610.79 1037.14 C 611.48 1037.12 612.02 1036.54 612.00 1035.84 L 610.97 999.45 C 610.95 998.63 610.27 997.98 609.45 998.00 L 603.96 998.00 C 603.91 998.00 603.74 998.00 603.67 998.00 C 603.56 998.00 603.45 998.00 603.38 998.04 L 576.71 1013.62 C 576.00 1014.04 575.76 1014.95 576.18 1015.66 L 576.37 1020.55 C 576.50 1020.77 576.36 1021.43 576.37 1021.68 L 576.92 1046.07 C 576.93 1046.61 576.65 1047.13 576.18 1047.40 L 575.30 1047.90 C 574.59 1048.31 574.35 1049.22 574.75 1049.94 L 576.92 1053.76 C 577.04 1053.98 577.11 1054.22 577.11 1054.47 L 577.65 1078.27 C 577.67 1079.10 578.35 1079.75 579.16 1079.73 L 583.60 1079.63 C 584.41 1079.61 585.06 1078.93 585.04 1078.10 L 584.45 1052.12 C 584.44 1051.57 584.72 1051.06 585.19 1050.79 L 608.71 1037.22 C 608.71 1037.22 608.71 1037.22 608.71 1037.21 Z M 603.71 1031.52 C 604.18 1031.24 604.46 1030.73 604.45 1030.18 L 603.85 1008.96 C 603.82 1007.83 602.59 1007.15 601.62 1007.72 L 584.43 1017.88 C 583.97 1018.15 583.69 1018.66 583.70 1019.20 L 584.18 1040.25 C 584.21 1041.37 585.42 1042.07 586.39 1041.51 L 603.71 1031.52 Z" fill="#fdbd68" fill-rule="evenodd" node-id="235" stroke="none" target-height="81.72998" target-width="37.43225" target-x="574.5668" target-y="998"></path><path d="M 522.69 1056.92 C 522.69 1056.90 522.66 1056.88 522.64 1056.89 C 522.62 1056.90 522.61 1056.90 522.60 1056.88 L 522.63 1050.24 C 522.22 1049.53 522.47 1048.61 523.17 1048.20 L 554.66 1029.76 C 555.37 1029.35 555.89 1029.02 557.00 1029.02 L 557.74 1029.02 C 558.11 1029.02 558.48 1029.02 558.85 1029.39 L 559.59 1029.76 C 560.32 1030.88 560.38 1032.08 560.40 1032.90 L 561.80 1084.95 C 561.82 1085.77 561.06 1086.07 560.32 1086.44 L 557.37 1087.93 C 557.25 1088.02 556.58 1088.30 556.35 1088.45 L 530.77 1105.08 L 530.40 1105.21 L 530.03 1105.46 C 529.30 1105.83 528.56 1106.20 527.82 1106.58 L 525.27 1107.95 C 522.69 1108.32 522.69 1106.16 522.69 1105.34 L 522.69 1056.92 Z M 553.57 1081.39 C 554.00 1081.11 554.25 1080.62 554.24 1080.10 L 553.24 1041.71 C 553.21 1040.59 552.00 1039.90 551.03 1040.46 L 530.82 1052.16 C 530.36 1052.42 530.07 1052.92 530.07 1053.45 L 530.07 1094.02 C 530.07 1095.27 529.71 1096.76 532.36 1095.27 L 553.57 1081.39 Z" fill="#fdbd68" fill-rule="evenodd" node-id="237" stroke="none" target-height="78.92993" target-width="39.358887" target-x="522.44214" target-y="1029.02"></path><path d="M 498.64 1072.27 C 498.64 1071.75 498.91 1071.26 499.36 1070.99 L 510.66 1064.08 C 511.37 1063.66 511.60 1062.75 511.18 1062.04 L 508.93 1058.18 C 508.51 1057.48 507.61 1057.24 506.90 1057.66 L 474.73 1077.02 C 474.02 1077.44 473.79 1078.36 474.21 1079.07 L 476.46 1082.92 C 476.88 1083.63 477.78 1083.86 478.48 1083.44 L 489.02 1077.16 C 492.73 1074.51 491.25 1077.29 491.25 1078.44 L 491.25 1118.51 C 491.25 1119.33 491.91 1120.00 492.73 1120.00 L 497.16 1120.00 C 497.98 1120.00 498.64 1119.33 498.64 1118.51 L 498.64 1072.27 Z" fill="#fdbd68" fill-rule="nonzero" node-id="239" stroke="none" target-height="62.535034" target-width="37.363373" target-x="474.01282" target-y="1057.465"></path><path d="M 606.71 1039.21 C 606.71 1039.21 606.71 1039.20 606.72 1039.20 L 608.79 1039.14 C 609.48 1039.12 610.02 1038.54 610.00 1037.84 L 608.97 1001.45 C 608.95 1000.63 608.27 999.98 607.45 1000.00 L 601.96 1000.00 C 601.91 1000.00 601.74 1000.00 601.67 1000.00 C 601.56 1000.00 601.45 1000.00 601.38 1000.04 L 574.71 1015.62 C 574.00 1016.04 573.76 1016.95 574.18 1017.66 L 574.37 1022.55 C 574.50 1022.77 574.36 1023.43 574.37 1023.68 L 574.92 1048.07 C 574.93 1048.61 574.65 1049.13 574.18 1049.40 L 573.30 1049.90 C 572.59 1050.31 572.35 1051.22 572.75 1051.94 L 574.92 1055.76 C 575.04 1055.98 575.11 1056.22 575.11 1056.47 L 575.65 1080.27 C 575.67 1081.10 576.35 1081.75 577.16 1081.73 L 581.60 1081.63 C 582.41 1081.61 583.06 1080.93 583.04 1080.10 L 582.45 1054.12 C 582.44 1053.57 582.72 1053.06 583.19 1052.79 L 606.71 1039.22 C 606.71 1039.22 606.71 1039.22 606.71 1039.21 Z M 601.71 1033.52 C 602.18 1033.24 602.46 1032.73 602.45 1032.18 L 601.85 1010.96 C 601.82 1009.83 600.59 1009.15 599.62 1009.72 L 582.43 1019.88 C 581.97 1020.15 581.69 1020.66 581.70 1021.20 L 582.18 1042.25 C 582.21 1043.37 583.42 1044.07 584.39 1043.51 L 601.71 1033.52 Z" fill="#fdbd68" fill-rule="evenodd" node-id="241" stroke="none" target-height="81.72998" target-width="37.43225" target-x="572.5668" target-y="1000"></path><path d="M 520.69 1058.92 C 520.69 1058.90 520.66 1058.88 520.64 1058.89 C 520.62 1058.90 520.61 1058.90 520.60 1058.88 L 520.63 1052.24 C 520.22 1051.53 520.47 1050.61 521.17 1050.20 L 552.66 1031.76 C 553.37 1031.35 553.89 1031.02 555.00 1031.02 L 555.74 1031.02 C 556.11 1031.02 556.48 1031.02 556.85 1031.39 L 557.59 1031.76 C 558.32 1032.88 558.38 1034.08 558.40 1034.90 L 559.80 1086.95 C 559.82 1087.77 559.06 1088.07 558.32 1088.44 L 555.37 1089.93 C 555.25 1090.02 554.58 1090.30 554.35 1090.45 L 528.77 1107.08 L 528.40 1107.21 L 528.03 1107.46 C 527.30 1107.83 526.56 1108.20 525.82 1108.58 L 523.27 1109.95 C 520.69 1110.32 520.69 1108.16 520.69 1107.34 L 520.69 1058.92 Z M 551.57 1083.39 C 552.00 1083.11 552.25 1082.62 552.24 1082.10 L 551.24 1043.71 C 551.21 1042.59 550.00 1041.90 549.03 1042.46 L 528.82 1054.16 C 528.36 1054.42 528.07 1054.92 528.07 1055.45 L 528.07 1096.02 C 528.07 1097.27 527.71 1098.76 530.36 1097.27 L 551.57 1083.39 Z" fill="#fdbd68" fill-rule="evenodd" node-id="243" stroke="none" target-height="78.92993" target-width="39.358887" target-x="520.44214" target-y="1031.02"></path><path d="M 496.64 1074.27 C 496.64 1073.75 496.91 1073.26 497.36 1072.99 L 508.66 1066.08 C 509.37 1065.66 509.60 1064.75 509.18 1064.04 L 506.93 1060.18 C 506.51 1059.48 505.61 1059.24 504.90 1059.66 L 472.73 1079.02 C 472.02 1079.44 471.79 1080.36 472.21 1081.07 L 474.46 1084.92 C 474.88 1085.63 475.78 1085.86 476.48 1085.44 L 487.02 1079.16 C 490.73 1076.51 489.25 1079.29 489.25 1080.44 L 489.25 1120.51 C 489.25 1121.33 489.91 1122.00 490.73 1122.00 L 495.16 1122.00 C 495.98 1122.00 496.64 1121.33 496.64 1120.51 L 496.64 1074.27 Z" fill="#fdbd68" fill-rule="nonzero" node-id="245" stroke="none" target-height="62.534912" target-width="37.363342" target-x="472.01285" target-y="1059.4651"></path></svg>